<svg xmlns="http://www.w3.org/2000/svg" viewBox="0 0 180 147" shape-rendering="geometricPrecision"><path fill="#131313" d="M156.5 60L156 56L156.5 60L157 64L156.5 60ZM130 88Q133 87 134.5 88.5Q136 90 136 92.5Q136 95 133.5 96.5Q131 98 129 96.5Q127 95 127 92Q127 89 130 88Z"/><path fill="#383738" d="M110.5 45.5L100 45L110.5 45.5L121 46L110.5 45.5ZM137.5 45.5L130 45L137.5 45.5L145 46L137.5 45.5ZM156.5 72L156 64L156.5 72L157 80L156.5 72Z"/><path fill="#737373" d="M36.5 67L36 30L36.5 67L37 104L36.5 67ZM31.5 39L31 31L31.5 39L32 47L31.5 39ZM127 40.5L117 40L127 40.5L137 41L127 40.5ZM31.5 81.5L31 53L31.5 81.5L32 110L31.5 81.5ZM161.5 74.5L161 69L161.5 74.5L162 80L161.5 74.5ZM60 126.5L53 126L60 126.5L67 127L60 126.5Z"/><path fill="#9c9c9d" d="M113 40.5L109 40L113 40.5L117 41L113 40.5ZM141.5 40.5L137 40L141.5 40.5L146 41L141.5 40.5Z"/><path fill="#b1b0af" d="M64.5 15.5L48 15L64.5 15.5L81 16L64.5 15.5ZM63 19.5L52 19L63 19.5L74 20L63 19.5Z"/><path fill="#c5c5c5" d="M119.5 44.5L101 44L119.5 44.5L138 45L119.5 44.5Z"/><path fill="#faf9fa" d="M32.5 71.5L32 32L32.5 71.5L33 111L32.5 71.5ZM160.5 66.5L160 60L160.5 66.5L161 73L160.5 66.5ZM59.5 125.5L53 125L59.5 125.5L66 126L59.5 125.5Z"/><path fill="#ffffff" d="M160 82.5Q159 87 155 90.5Q151 94 146 94Q141 94 140.5 95.5Q140 97 136.5 99.5Q133 102 129.5 101.5Q126 101 124 98.5Q122 96 122 92.5Q122 89 125 86Q128 83 131.5 83Q135 83 138 87Q141 91 145 91Q149 91 152.5 88Q156 85 156.5 69.5Q157 54 153 49.5Q149 45 123.5 44.5Q98 44 95 42Q92 40 91.5 34.5Q91 29 87.5 24.5Q84 20 63.5 20Q43 20 41 21.5Q39 23 37.5 26.5Q36 30 36 71Q36 112 39 116.5Q42 121 54.5 121.5Q67 122 67.5 123Q68 124 67.5 125Q67 126 56.5 126Q46 126 42.5 124.5Q39 123 36 119Q33 115 32.5 73Q32 31 33 27.5Q34 24 36 21.5Q38 19 41.5 17.5Q45 16 63.5 16Q82 16 85 17Q88 18 90.5 21Q93 24 94 31Q95 38 97 39.5Q99 41 125 41.5Q151 42 154.5 45Q158 48 159.5 52Q161 56 161 67Q161 78 160 82.5ZM68.5 70L69 69L82.5 77Q96 85 95.5 87.5Q95 90 83 96.5Q71 103 70 103L69 103L69.5 101Q70 99 79.5 94.5Q89 90 90.5 88L92 86L83.5 81.5Q75 77 71.5 74L68 71L68.5 70ZM131 87Q128 87 126.5 88.5Q125 90 125.5 93Q126 96 127 97Q128 98 131 98Q134 98 136 96Q138 94 138 92.5Q138 91 136 89Q134 87 131 87Z"/></svg>