<svg xmlns="http://www.w3.org/2000/svg" viewBox="0 0 1400 933" shape-rendering="geometricPrecision"><path fill="currentColor" stroke="currentColor" d="M928 177C929.2 177.7 928.5 178.7 929 179C929.5 179.3 931 179 931 179L931 180L932 180L932 181L933 181L933 182L934 182C934 182 932.7 181.7 934 183C935.3 184.3 940.7 188.5 942 190C943.3 191.5 941.7 191.5 942 192C942.3 192.5 943.7 192.5 944 193C944.3 193.5 943.7 194.5 944 195C944.3 195.5 945.7 195.5 946 196C946.3 196.5 946 198 946 198L947 198L947 200L948 200L948 202L949 202L949 204L950 204L950 208L951 208L951 212L952 212L952 229L951 229L951 234L950 234L949 240L948 240L948 242C948 242 947.5 241 947 242C946.5 243 945.7 246.8 945 248C944.3 249.2 943.3 248.5 943 249C942.7 249.5 943 251 943 251L942 251L942 252L941 252L941 253L940 253L940 254C940 254 940.3 252.7 939 254C937.7 255.3 933.5 260.7 932 262C930.5 263.3 930.5 261.7 930 262C929.5 262.3 929.5 263.7 929 264C928.5 264.3 927 264 927 264L927 265L925 265L925 266L923 266L923 267L921 267L921 268L918 268L918 269L910 270L910 271L909 271L909 288L908 288L908 294L907 294L907 300L906 300L907 303L906 303L905 315L904 315L904 319L903 319L903 324L902 324L902 328L901 328L901 333L900 333L898 345L897 345L897 348L896 348L896 351L895 351L895 354L894 354L894 357L893 357L893 360L892 360L892 364L891 364L889 373L888 373L888 375L887 375L886 381L885 381L885 383L884 383L884 385L883 385L883 388L882 388L882 390L881 390L881 393L880 393L880 395L879 395L879 398L878 398L878 400L877 400L877 402L876 402L876 404L875 404L875 406L874 406L874 408L873 408L873 410L872 410L872 412L871 412L871 414L870 414L870 416C870 416 869.5 415 869 416C868.5 417 867.7 420.8 867 422C866.3 423.2 865.3 422.5 865 423C864.7 423.5 865 425 865 425L864 425C864 425 863.5 428.2 863 429C862.5 429.8 861.3 429.5 861 430C860.7 430.5 861 432 861 432L860 432C860 432 859.5 435.2 859 436C858.5 436.8 857.3 436.5 857 437C856.7 437.5 857 439 857 439L855 439L854 444C854 444 853.3 443.5 853 444C852.7 444.5 852.5 446.3 852 447C851.5 447.7 850.5 447.2 850 448C849.5 448.8 849.5 451.2 849 452C848.5 452.8 847.3 452.5 847 453C846.7 453.5 847.3 454.5 847 455C846.7 455.5 845.3 455.5 845 456C844.7 456.5 845.3 457.5 845 458C844.7 458.5 843.3 458.5 843 459C842.7 459.5 843.3 460.5 843 461C842.7 461.5 841.3 461.5 841 462C840.7 462.5 841.3 463.5 841 464C840.7 464.5 839.3 464.5 839 465C838.7 465.5 839.5 466.3 839 467C838.5 467.7 836.5 468.3 836 469C835.5 469.7 836.5 470.3 836 471C835.5 471.7 833.5 472.3 833 473C832.5 473.7 833.3 474.5 833 475C832.7 475.5 831.3 475.5 831 476C830.7 476.5 831.3 477.5 831 478C830.7 478.5 829.3 478.5 829 479C828.7 479.5 829 481 829 481L828 481C828 481 828.3 481.7 828 482C827.7 482.3 826.3 482.5 826 483C825.7 483.5 826.8 484 826 485C825.2 486 821.8 488 821 489C820.2 490 821.5 490.3 821 491C820.5 491.7 818.5 492.3 818 493C817.5 493.7 818.7 494.2 818 495C817.3 495.8 814.7 497.2 814 498C813.3 498.8 814 500 814 500L813 500C813 500 813.7 500.3 813 501C812.3 501.7 809.7 503.2 809 504C808.3 504.8 809.7 505.2 809 506C808.3 506.8 805.7 508.2 805 509C804.3 509.8 806.2 509.7 805 511C803.8 512.3 799.2 515.7 798 517C796.8 518.3 798.5 518.5 798 519C797.5 519.5 795.7 519.3 795 520C794.3 520.7 795.5 521.3 794 523C792.5 524.7 787.3 528.5 786 530C784.7 531.5 786.5 531.5 786 532C785.5 532.5 783.7 532.3 783 533C782.3 533.7 782.3 535.5 782 536C781.7 536.5 782.3 534.7 781 536C779.7 537.3 775.5 542.7 774 544C772.5 545.3 772.5 543.5 772 544C771.5 544.5 771.3 546.5 771 547C770.7 547.5 770.5 546.5 770 547C769.5 547.5 768.7 549.5 768 550C767.3 550.5 767 549.2 766 550C765 550.8 763 554.2 762 555C761 555.8 760.5 554.5 760 555C759.5 555.5 759.5 557.5 759 558C758.5 558.5 758.3 556.8 757 558C755.7 559.2 752.3 563.8 751 565C749.7 566.2 750 564.2 749 565C748 565.8 746 569.2 745 570C744 570.8 744 569.2 743 570C742 570.8 740 574.2 739 575C738 575.8 737.8 574.3 737 575C736.2 575.7 734.8 578.3 734 579C733.2 579.7 732.7 578.5 732 579C731.3 579.5 730.7 581.5 730 582C729.3 582.5 728 582 728 582L728 583C728 583 727.3 582.7 727 583C726.7 583.3 726.5 584.7 726 585C725.5 585.3 724.7 584.5 724 585C723.3 585.5 722.7 587.5 722 588C721.3 588.5 720.5 587.7 720 588C719.5 588.3 719.8 589.5 719 590C718.2 590.5 715 591 715 591C715 591 715.5 591.7 715 592C714.5 592.3 712.8 592.3 712 593C711.2 593.7 711 595.3 710 596C709 596.7 706 597 706 597L706 598L705 598L705 601L706 601L707 608L708 608L708 629L707 629L706 635L708 635C708 635 707.5 635.7 708 636C708.5 636.3 710.3 636.5 711 637C711.7 637.5 711.2 638.5 712 639C712.8 639.5 715.2 639.5 716 640C716.8 640.5 715.8 641.3 717 642C718.2 642.7 721.8 643.3 723 644C724.2 644.7 722.8 645.3 724 646C725.2 646.7 728.8 647.3 730 648C731.2 648.7 730 649.5 731 650C732 650.5 736 651 736 651L736 652L738 652L738 653L740 653L740 654L742 654L742 655L744 655L744 656L746 656L746 657L748 657L748 658L750 658L750 659L753 659L753 660L755 660L755 661L758 661L758 662L761 662L761 663L764 663L764 664L767 664L767 665L770 665L770 666L773 666L773 667L776 667L776 668L780 668L780 669L783 669L783 670L787 670L787 671L791 671L791 672L796 672L796 673L801 673L801 674L803 673L803 674L808 674L808 675L817 675L817 676L829 676L829 677L830 677L830 676L846 676L846 675L859 674L859 673L864 673L864 672L869 672L869 671L875 670L875 669L877 669C877 669 876 668.5 877 668C878 667.5 881.8 666.7 883 666C884.2 665.3 882.8 664.7 884 664C885.2 663.3 889 662.5 890 662C891 661.5 890 661 890 661C890 661 890.7 661.3 891 661C891.3 660.7 891.5 659.3 892 659C892.5 658.7 893.3 659.5 894 659C894.7 658.5 895.3 656.5 896 656C896.7 655.5 898 656 898 656C898 656 897.2 655 898 654C898.8 653 902.2 651 903 650C903.8 649 903 648 903 648L905 648L905 646C905 646 905.7 646.5 906 646C906.3 645.5 906.5 643.7 907 643C907.5 642.3 908.7 642.5 909 642C909.3 641.5 909 640 909 640L910 640L910 638L911 638L911 636L912 636L912 634L913 634L913 632L914 632L915 626L916 626L916 624L917 624L917 619L918 619L918 614L919 614L919 607L920 607L920 584L919 584L919 576L918 576L919 573L918 573L918 570L917 570L917 564L916 564L916 561L915 561L915 556L914 556L914 553L913 553L912 545L911 545L911 542L910 542L910 538L909 538L909 536L908 536L908 533L907 533L907 531L906 531L905 525L904 525L904 523L903 523L903 520L902 520L902 518L901 518L901 515L900 515L900 513L899 513L899 511L898 511L898 508L897 508L897 506L896 506C896 506 896.3 503.7 896 503C895.7 502.3 894.3 502.5 894 502C893.7 501.5 894 500 894 500L893 500L893 498L892 498L892 496L891 496L891 494L890 494L890 492L889 492L889 490C889 490 888.5 491 888 490C887.5 489 886.7 485.2 886 484C885.3 482.8 884.3 483.5 884 483C883.7 482.5 884 481 884 481L883 481L883 479L882 479L882 477C882 477 881.5 478 881 477C880.5 476 879.7 472.2 879 471C878.3 469.8 877.5 470.8 877 470C876.5 469.2 876.5 466.8 876 466C875.5 465.2 874.3 465.5 874 465C873.7 464.5 874.3 463.5 874 463C873.7 462.5 872.5 462.8 872 462C871.5 461.2 871.5 458.8 871 458C870.5 457.2 869.5 457.8 869 457C868.5 456.2 868 453 868 453C868 453 867.3 453.5 867 453C866.7 452.5 866.3 450.5 866 450C865.7 449.5 865 450 865 450L865 448L866 448L865 444L866 444C866 444 865.7 441.7 866 441C866.3 440.3 867.5 440.7 868 440C868.5 439.3 867.8 437.7 869 437C870.2 436.3 875 436 875 436L875 435L876 435L876 436L881 436L881 437C881 437 881.7 436.7 882 437C882.3 437.3 882.5 438.7 883 439C883.5 439.3 885 439 885 439C885 439 884.5 440.3 885 441C885.5 441.7 887.5 442.3 888 443C888.5 443.7 888 445 888 445L889 445C889 445 888.7 446.5 889 447C889.3 447.5 890.5 447.2 891 448C891.5 448.8 891.5 451.2 892 452C892.5 452.8 893.7 452.5 894 453C894.3 453.5 894 455 894 455C894 455 894.7 454.5 895 455C895.3 455.5 895.5 457.3 896 458C896.5 458.7 897.5 458 898 459C898.5 460 898.3 462.8 899 464C899.7 465.2 901.5 465.3 902 466C902.5 466.7 902 468 902 468L903 468L903 470L904 470L904 472L905 472L905 475L907 475L907 477L908 477L908 479L909 479L909 481L910 481L910 483L911 483L911 485L912 485C912 485 911.7 487.3 912 488C912.3 488.7 913.7 488.3 914 489C914.3 489.7 914 492 914 492L915 492L915 494L916 494L916 496L917 496L917 498L918 498L918 500L919 500L919 502L920 502L920 504L921 504L922 510L923 510L924 515L925 515L925 517L926 517L926 520L927 520L927 522L928 522L928 524L929 524L929 527L930 527L930 530L931 530L931 533L932 533L932 536L933 536L933 540L934 540L934 543L935 543L935 547L936 547L936 550L937 550L938 559L939 559L939 562L940 562L941 574L942 574L942 584L943 584L943 608L942 608L942 616L941 616L941 622L940 622L940 625L939 625L939 629L938 629L936 638L935 638L935 640L934 640L934 642L933 642L933 644L932 644C932 644 932.3 646.3 932 647C931.7 647.7 930.5 647.2 930 648C929.5 648.8 929.5 651.2 929 652C928.5 652.8 927.3 652.5 927 653C926.7 653.5 927.3 654.5 927 655C926.7 655.5 925.3 655.5 925 656C924.7 656.5 925.7 657.2 925 658C924.3 658.8 921.7 660.2 921 661C920.3 661.8 921 663 921 663C921 663 920.7 662.3 920 663C919.3 663.7 917.8 666.3 917 667C916.2 667.7 915 667 915 667L915 669C915 669 914.8 668.2 914 669C913.2 669.8 911 673.2 910 674C909 674.8 908.7 673.5 908 674C907.3 674.5 906.7 676.5 906 677C905.3 677.5 904 677 904 677L904 678C904 678 903.3 677.7 903 678C902.7 678.3 902.5 679.7 902 680C901.5 680.3 900.5 679.7 900 680C899.5 680.3 899.5 681.7 899 682C898.5 682.3 897 682 897 682C897 682 898 682.5 897 683C896 683.5 892 684.5 891 685C890 685.5 891.5 685.7 891 686C890.5 686.3 888.5 686.7 888 687C887.5 687.3 888 688 888 688L885 688L885 689L883 689L883 690L880 690L880 691L877 691L877 692L874 692L874 693L870 693L870 694L866 694L866 695L862 695L862 696L859 695L859 696L856 696L856 697L847 697L847 698L843 698L843 697L835 697L835 698L830 698L830 697L824 697L824 698L821 698L821 697L809 697L809 696L806 696L806 695L805 695L805 696L804 696L804 695L797 695L797 694L793 694L793 693L787 693L787 692L782 692L782 691L774 690L774 689L771 689L771 688L768 688L768 687L765 687L765 686L762 686L762 685L753 683L753 682L748 681L748 680L746 680L746 679L740 678L740 677L738 677L738 676L736 676L736 675L734 675L734 674L732 674L732 673L730 673L730 672L727 672L727 671L725 671L725 670L723 670L723 669L721 669L721 668L719 668C719 668 720 667.5 719 667C718 666.5 714.2 665.7 713 665C711.8 664.3 712.5 663.3 712 663C711.5 662.7 710 663 710 663L710 662L708 662C708 662 709 661.5 708 661C707 660.5 703.2 659.7 702 659C700.8 658.3 701.5 657.3 701 657C700.5 656.7 699 657 699 657C699 657 699.5 656.3 699 656C698.5 655.7 696.5 655.3 696 655C695.5 654.7 696 654 696 654C696 654 694.8 653.3 694 654C693.2 654.7 691.8 657.3 691 658C690.2 658.7 689 658 689 658L689 660C689 660 687.7 659.5 687 660C686.3 660.5 686 662.3 685 663C684 663.7 681.8 663.5 681 664C680.2 664.5 680.5 665.7 680 666C679.5 666.3 678 666 678 666L678 667L676 667L676 668L674 668L674 669L668 670L668 671L664 671L664 672L641 672L641 671L636 671L636 670L634 670L634 669L631 669L631 668L629 668C629 668 630 667.5 629 667C628 666.5 624.2 665.7 623 665C621.8 664.3 622.8 663.5 622 663C621.2 662.5 618 662 618 662L618 661L617 661L617 660L616 660L616 659L615 659L615 658L614 658L614 657L613 657C613 657 614.3 657.3 613 656C611.7 654.7 606.3 650.5 605 649C603.7 647.5 605.3 647.5 605 647C604.7 646.5 603.3 646.5 603 646C602.7 645.5 603 644 603 644L602 644L602 642L601 642L601 640L600 640L600 638L599 638L598 632L597 632L597 626L596 626L596 608L597 608L597 607L596 607L596 606L597 606L599 597L600 597L600 595C600 595 600.5 596 601 595C601.5 594 602 590.5 603 589C604 587.5 606.3 587 607 586C607.7 585 607 583 607 583L609 583L609 581C609 581 609.2 581.8 610 581C610.8 580.2 613 576.8 614 576C615 575.2 616 576 616 576L616 574L620 573L620 572C620 572 620.7 572.3 621 572C621.3 571.7 621.5 570.3 622 570C622.5 569.7 623.5 570.3 624 570C624.5 569.7 624.5 568.3 625 568C625.5 567.7 627 568 627 568L627 567L629 567L629 566L632 566L632 565L634 565L634 564L638 564L638 563L641 563L641 562L647 562L647 561L649 561L649 562L650 562L650 561L651 561L651 562L661 562L661 563L666 563L666 564L672 565L672 566L674 566L674 567L676 567C676 567 675 567.5 676 568C677 568.5 680.8 569.3 682 570C683.2 570.7 682.5 571.7 683 572C683.5 572.3 685 572 685 572L685 573C685 573 685.7 572.7 686 573C686.3 573.3 686.5 574.7 687 575C687.5 575.3 688.2 574.3 689 575C689.8 575.7 691 578.3 692 579C693 579.7 694.3 579.3 695 579C695.7 578.7 695.5 577.3 696 577C696.5 576.7 697.5 577.3 698 577C698.5 576.7 698.5 575.3 699 575C699.5 574.7 700.5 575.3 701 575C701.5 574.7 701.5 573.3 702 573C702.5 572.7 703.5 573.3 704 573C704.5 572.7 704.5 571.3 705 571C705.5 570.7 706.5 571.3 707 571C707.5 570.7 707.5 569.3 708 569C708.5 568.7 709.5 569.3 710 569C710.5 568.7 710.5 567.3 711 567C711.5 566.7 712.3 567.5 713 567C713.7 566.5 714.3 564.5 715 564C715.7 563.5 717 564 717 564L717 563C717 563 717.7 563.3 718 563C718.3 562.7 718.5 561.3 719 561C719.5 560.7 720.3 561.5 721 561C721.7 560.5 722.3 558.5 723 558C723.7 557.5 724 558.8 725 558C726 557.2 728 553.8 729 553C730 552.2 730 553.8 731 553C732 552.2 734 548.8 735 548C736 547.2 735.5 549.3 737 548C738.5 546.7 742.5 541.3 744 540C745.5 538.7 746 540 746 540L746 539L747 539L747 538L748 538L748 537L749 537L749 536L750 536L750 535C750 535 749.7 536.3 751 535C752.3 533.7 756.5 528.3 758 527C759.5 525.7 760 527 760 527C760 527 759.5 525.5 760 525C760.5 524.5 762.5 524.3 763 524C763.5 523.7 762.7 523.3 763 523C763.3 522.7 764.7 522.5 765 522C765.3 521.5 765 520 765 520C765 520 765.2 520.8 766 520C766.8 519.2 769 515.8 770 515C771 514.2 772 515 772 515C772 515 771 514.2 772 513C773 511.8 777 509.2 778 508C779 506.8 778 506 778 506L780 506L780 504L781 504C781 504 780.2 503.8 781 503C781.8 502.2 785.2 500 786 499C786.8 498 785.2 498 786 497C786.8 496 790.2 494 791 493C791.8 492 790.3 491.8 791 491C791.7 490.2 794.3 488.8 795 488C795.7 487.2 795 486 795 486L796 486C796 486 795.7 485.3 796 485C796.3 484.7 797.7 484.5 798 484C798.3 483.5 797.3 482.8 798 482C798.7 481.2 801.3 479.8 802 479C802.7 478.2 801.2 478 802 477C802.8 476 806.2 474 807 473C807.8 472 806.7 471.5 807 471C807.3 470.5 808.7 470.5 809 470C809.3 469.5 808.5 468.7 809 468C809.5 467.3 811.5 466.7 812 466C812.5 465.3 812 464 812 464L814 464C814 464 814.5 460.8 815 460C815.5 459.2 816.7 459.5 817 459C817.3 458.5 816.7 457.5 817 457C817.3 456.5 818.7 456.5 819 456C819.3 455.5 819 454 819 454C819 454 819.7 454.5 820 454C820.3 453.5 820.3 451.8 821 451C821.7 450.2 823.5 449.7 824 449C824.5 448.3 823.7 447.5 824 447C824.3 446.5 825.7 446.5 826 446C826.3 445.5 825.7 444.5 826 444C826.3 443.5 827.7 443.5 828 443C828.3 442.5 828 441 828 441C828 441 828.7 441.5 829 441C829.3 440.5 829.5 438.7 830 438C830.5 437.3 831.5 437.8 832 437C832.5 436.2 833 433 833 433C833 433 833.7 433.5 834 433C834.3 432.5 834.5 430.7 835 430C835.5 429.3 836.3 430.2 837 429C837.7 427.8 838.3 424.2 839 423C839.7 421.8 840.5 422.8 841 422C841.5 421.2 841.5 418.8 842 418C842.5 417.2 843.5 417.8 844 417C844.5 416.2 844.5 413.8 845 413C845.5 412.2 846.7 412.5 847 412C847.3 411.5 847 410 847 410L848 410L848 408L849 408L849 406L850 406L850 404L851 404L851 402L852 402L852 400L853 400L853 398L854 398L854 396L855 396L855 394L856 394L856 392L857 392L857 390L858 390L858 388L859 388L859 385L860 385L860 383L861 383L861 380L862 380L862 378L863 378L863 375L864 375L864 373L865 373L865 371L866 371L866 368L867 368L867 366L868 366L868 363L869 363L869 360L870 360L870 357L871 357L872 350L873 350L873 348L874 348L874 344L875 344L875 341L876 341L876 338L877 338L877 334L878 334L879 326L880 326L880 322L881 322L881 316L882 316L882 312L883 312L884 302L885 302L885 298L886 298L885 295L886 295L886 287L887 287L887 274L888 274L888 270L881 269L881 268L879 268C879 268 880 267.5 879 267C878 266.5 874.2 265.7 873 265C871.8 264.3 872.5 263.3 872 263C871.5 262.7 870.8 263.7 870 263C869.2 262.3 867.8 259.7 867 259C866.2 258.3 865 259 865 259C865 259 865.3 258.3 865 258C864.7 257.7 863.3 257.5 863 257C862.7 256.5 863 255 863 255L861 255C861 255 861.5 253.7 861 253C860.5 252.3 858.5 251.7 858 251C857.5 250.3 858.3 249.5 858 249C857.7 248.5 856.3 248.5 856 248C855.7 247.5 856 246 856 246L855 246L855 244L854 244L854 242L853 242L853 240L852 240L852 238L851 238L851 234L850 234L850 230L849 230L849 213L850 213L851 204L852 204L852 202C852 202 852.5 203 853 202C853.5 201 854.5 197 855 196C855.5 195 856 196 856 196C856 196 855.7 195.3 856 195C856.3 194.7 857.7 194.5 858 194C858.3 193.5 857.3 192.8 858 192C858.7 191.2 861.3 189.8 862 189C862.7 188.2 862 187 862 187L864 187C864 187 863.3 186.7 864 186C864.7 185.3 867.3 183.8 868 183C868.7 182.2 868 181 868 181C868 181 869.3 181.5 870 181C870.7 180.5 871.3 178.5 872 178C872.7 177.5 874 178 874 178L874 177L876 177L876 176L878 176L878 175L880 175L880 174L882 174L882 173L884 173L884 172L893 171L893 170L909 170L909 171L914 171L914 172L920 173L920 174L922 174C922 174 921 174.5 922 175C923 175.5 926.8 176.3 928 177ZM897 191L897 192L892 192L892 193L889 193L889 194C889 194 886 194.3 885 195C884 195.7 883.7 197.5 883 198C882.3 198.5 881 198 881 198C881 198 881.5 198.5 881 199C880.5 199.5 878.5 200.3 878 201C877.5 201.7 878 203 878 203C878 203 877.3 202.5 877 203C876.7 203.5 876.5 205.3 876 206C875.5 206.7 874.3 206.3 874 207C873.7 207.7 874 210 874 210L873 210L873 213L872 213L871 225L872 225L872 230L873 230L873 233L874 233C874 233 874.5 236.2 875 237C875.5 237.8 876.7 237.5 877 238C877.3 238.5 877 240 877 240C877 240 877 239 878 240C879 241 881.8 245 883 246C884.2 247 885 246 885 246L885 247L887 247L887 248L889 248L889 249L892 249L892 250L896 250L896 251L904 251L904 250L908 250L908 249L911 249C911 249 910 248.5 911 248C912 247.5 916 246.5 917 246C918 245.5 915.7 246.3 917 245C918.3 243.7 923.7 239.5 925 238C926.3 236.5 925 236 925 236L926 236L926 234L927 234L927 232L928 232L928 229L929 229L929 225L930 225L930 217L929 217L929 213L928 213L928 210L927 210C927 210 926.5 206.8 926 206C925.5 205.2 924.5 205.8 924 205C923.5 204.2 923 201 923 201C923 201 922.5 201.5 922 201C921.5 200.5 920.7 198.5 920 198C919.3 197.5 918.5 198.3 918 198C917.5 197.7 917.5 196.3 917 196C916.5 195.7 915.5 196.3 915 196C914.5 195.7 915 194.5 914 194C913 193.5 909 193 909 193L909 192L897 191ZM789 250C790 250.5 789 251 789 251C789 251 789.7 250.7 790 251C790.3 251.3 790.5 252.7 791 253C791.5 253.3 793 253 793 253C793 253 792.5 254.5 793 255C793.5 255.5 795.3 255.3 796 256C796.7 256.7 796 257.8 797 259C798 260.2 801.2 262 802 263C802.8 264 801.7 264.5 802 265C802.3 265.5 803.7 265.5 804 266C804.3 266.5 804 268 804 268L805 268L805 270L806 270L806 273L807 273L807 275L808 275L808 279L809 279L809 299L808 299L808 303L807 303L807 306C807 306 806.5 305 806 306C805.5 307 804.7 310.8 804 312C803.3 313.2 802.3 312.5 802 313C801.7 313.5 802.7 314.2 802 315C801.3 315.8 798.7 317.2 798 318C797.3 318.8 798 320 798 320C798 320 797.5 319.5 797 320C796.5 320.5 795.7 322.5 795 323C794.3 323.5 793.7 322.5 793 323C792.3 323.5 791.7 325.5 791 326C790.3 326.5 789 326 789 326C789 326 789.5 326.7 789 327C788.5 327.3 786.7 327.5 786 328C785.3 328.5 786 329.5 785 330C784 330.5 780 331 780 331L780 332L778 332L778 333L773 333L773 334L752 334L752 333L748 333L748 332L745 332C745 332 746 331.5 745 331C744 330.5 740 329.5 739 329C738 328.5 739.5 328.3 739 328C738.5 327.7 736.8 327.7 736 327C735.2 326.3 734.7 324.5 734 324C733.3 323.5 733 324.8 732 324C731 323.2 729.2 319.8 728 319C726.8 318.2 725.8 318.5 725 319C724.2 319.5 723.8 321.5 723 322C722.2 322.5 720.7 321.7 720 322C719.3 322.3 719.8 323.5 719 324C718.2 324.5 715.8 324.5 715 325C714.2 325.5 714.5 326.7 714 327C713.5 327.3 712 327 712 327C712 327 712.5 327.7 712 328C711.5 328.3 709.7 328.5 709 329C708.3 329.5 708.8 330.5 708 331C707.2 331.5 704.8 331.5 704 332C703.2 332.5 703.5 333.7 703 334C702.5 334.3 701.5 333.7 701 334C700.5 334.3 700.5 335.7 700 336C699.5 336.3 698.5 335.7 698 336C697.5 336.3 697.5 337.7 697 338C696.5 338.3 695.7 337.5 695 338C694.3 338.5 693.7 340.5 693 341C692.3 341.5 691.5 340.7 691 341C690.5 341.3 690.5 342.7 690 343C689.5 343.3 688.5 342.7 688 343C687.5 343.3 687.5 344.7 687 345C686.5 345.3 685.7 344.5 685 345C684.3 345.5 683.7 347.5 683 348C682.3 348.5 681.7 347.5 681 348C680.3 348.5 679.7 350.5 679 351C678.3 351.5 677.8 350.3 677 351C676.2 351.7 674.8 354.3 674 355C673.2 355.7 672.5 354.7 672 355C671.5 355.3 671.5 356.7 671 357C670.5 357.3 669 357 669 357L669 358C669 358 668.5 357.5 668 358C667.5 358.5 666.7 360.5 666 361C665.3 361.5 664.8 360.3 664 361C663.2 361.7 661.8 364.3 661 365C660.2 365.7 660.2 364 659 365C657.8 366 655.2 370 654 371C652.8 372 652 371 652 371L652 372C652 372 651.7 371.3 651 372C650.3 372.7 648.8 375.3 648 376C647.2 376.7 647.3 374.8 646 376C644.7 377.2 641.3 381.8 640 383C638.7 384.2 639.5 381.7 638 383C636.5 384.3 632.5 389.7 631 391C629.5 392.3 629 391 629 391C629 391 629.5 392.5 629 393C628.5 393.5 626.5 393.7 626 394C625.5 394.3 626 395 626 395L625 395L625 396L624 396L624 397L623 397L623 398L622 398L622 399L621 399L621 400C621 400 621.3 398.7 620 400C618.7 401.3 614.5 406.7 613 408C611.5 409.3 611 408 611 408C611 408 611.8 408.2 611 409C610.2 409.8 606.8 412 606 413C605.2 414 606 415 606 415L604 415C604 415 604.5 415.5 604 416C603.5 416.5 601.5 417.3 601 418C600.5 418.7 601.5 419.5 601 420C600.5 420.5 598.5 420.5 598 421C597.5 421.5 598 423 598 423L596 423L596 425L595 425L595 426L594 426C594 426 595.3 425.7 594 427C592.7 428.3 587.3 432.5 586 434C584.7 435.5 586 436 586 436L585 436C585 436 586.3 435.7 585 437C583.7 438.3 578.3 442.5 577 444C575.7 445.5 577 446 577 446L576 446C576 446 576.8 446.2 576 447C575.2 447.8 571.8 450 571 451C570.2 452 572 451.8 571 453C570 454.2 566 456.8 565 458C564 459.2 565 460 565 460L564 460C564 460 564.5 460.5 564 461C563.5 461.5 561.5 462.3 561 463C560.5 463.7 562 463.8 561 465C560 466.2 556 468.8 555 470C554 471.2 555.3 471.5 555 472C554.7 472.5 553.3 472.5 553 473C552.7 473.5 553.5 474.3 553 475C552.5 475.7 550.5 476.3 550 477C549.5 477.7 550.5 478.3 550 479C549.5 479.7 547.5 480.3 547 481C546.5 481.7 547.3 482.5 547 483C546.7 483.5 545.3 483.5 545 484C544.7 484.5 545.5 485.3 545 486C544.5 486.7 542.5 487.3 542 488C541.5 488.7 542.3 489.5 542 490C541.7 490.5 540.3 490.5 540 491C539.7 491.5 540.3 492.5 540 493C539.7 493.5 538.3 493.5 538 494C537.7 494.5 538.3 495.5 538 496C537.7 496.5 536.3 496.5 536 497C535.7 497.5 536.3 498.5 536 499C535.7 499.5 534.3 499.5 534 500C533.7 500.5 534.3 501.5 534 502C533.7 502.5 532.3 502.5 532 503C531.7 503.5 532 505 532 505C532 505 531.3 504.5 531 505C530.7 505.5 530.5 507.3 530 508C529.5 508.7 528.5 508.2 528 509C527.5 509.8 527.5 512.2 527 513C526.5 513.8 525.3 513.5 525 514C524.7 514.5 525 516 525 516C525 516 524.3 515.5 524 516C523.7 516.5 523.5 518.3 523 519C522.5 519.7 521.7 518.8 521 520C520.3 521.2 519.7 524.8 519 526C518.3 527.2 517.7 525.8 517 527C516.3 528.2 515.7 531.8 515 533C514.3 534.2 513.3 533.5 513 534C512.7 534.5 513 536 513 536L512 536L512 538L511 538L511 540L510 540L510 542L509 542L509 544L508 544L508 546L507 546L507 548L506 548L506 550L505 550L505 552L504 552C504 552 504.3 554.3 504 555C503.7 555.7 502.3 555.3 502 556C501.7 556.7 502 559 502 559L501 559L501 561L500 561L499 567L498 567L497 572L496 572L496 574L495 574L493 583L492 583L492 585L491 585L491 589L490 589L490 592L489 592L487 605L486 605L486 608L485 608L485 614L484 614L484 617L483 617L484 620L483 620L483 626L482 626L482 633L491 635L491 636C491 636 494.2 636.5 495 637C495.8 637.5 495.2 638.5 496 639C496.8 639.5 499 639.3 500 640C501 640.7 501.3 642.5 502 643C502.7 643.5 504 643 504 643L504 645C504 645 504.7 644.7 505 645C505.3 645.3 505.5 646.7 506 647C506.5 647.3 508 647 508 647C508 647 507.5 648.3 508 649C508.5 649.7 510.5 650.3 511 651C511.5 651.7 510.7 652.5 511 653C511.3 653.5 512.7 653.5 513 654C513.3 654.5 512.7 655.5 513 656C513.3 656.5 514.7 656.5 515 657C515.3 657.5 515 659 515 659L516 659L516 661L517 661L517 663L518 663L518 665L519 665L520 675L521 675L521 688L520 688L520 694L519 694L518 700C518 700 517.5 699 517 700C516.5 701 515.7 704.8 515 706C514.3 707.2 513.3 706.5 513 707C512.7 707.5 513.5 708.3 513 709C512.5 709.7 510.5 710.3 510 711C509.5 711.7 510 713 510 713C510 713 509.3 712.7 509 713C508.7 713.3 508.5 714.7 508 715C507.5 715.3 506 715 506 715L506 717C506 717 505.3 716.7 505 717C504.7 717.3 504.5 718.7 504 719C503.5 719.3 502.7 718.5 502 719C501.3 719.5 500.7 721.5 500 722C499.3 722.5 498 722 498 722C498 722 499 722.5 498 723C497 723.5 493.2 724.3 492 725C490.8 725.7 491.7 726.7 491 727C490.3 727.3 488 727 488 727L488 728L482 729L482 730L477 730L477 731L476 731L476 730L470 731L470 730L456 729L456 728L454 728L454 727L451 727L451 726L449 726L449 725L447 725C447 725 448 724.5 447 724C446 723.5 443.2 723.7 441 722C438.8 720.3 435.5 715.3 434 714C432.5 712.7 432 714 432 714C432 714 432.5 712.7 432 712C431.5 711.3 429.7 711 429 710C428.3 709 428.5 706.8 428 706C427.5 705.2 426.5 706 426 705C425.5 704 425 700 425 700L424 700L423 695L422 695L422 690L421 690L421 673L422 673L422 667L423 667L424 662L425 662C425 662 425.5 658.8 426 658C426.5 657.2 427.5 657.8 428 657C428.5 656.2 428.3 653.8 429 653C429.7 652.2 431.5 652.5 432 652C432.5 651.5 431.7 650.5 432 650C432.3 649.5 433.7 649.5 434 649C434.3 648.5 434 647 434 647C434 647 434.3 647.7 435 647C435.7 646.3 437.2 643.7 438 643C438.8 642.3 440 643 440 643L440 642C440 642 440.7 642.3 441 642C441.3 641.7 441.5 640.3 442 640C442.5 639.7 443.5 640.3 444 640C444.5 639.7 443.8 638.7 445 638C446.2 637.3 449.8 636.7 451 636C452.2 635.3 451.3 634.3 452 634C452.7 633.7 455 634 455 634L455 633L458 633L458 632L459 632L459 629L460 629L460 622L461 622L461 615L462 615L462 609L463 609L462 607L463 607L463 605L464 605L464 598L465 598L465 595L466 595L466 591L467 591L468 583L469 583L469 580L470 580L470 576L471 576L471 574L472 574L472 571L473 571L473 568L474 568L474 566L475 566L476 560L477 560L477 558L478 558L479 552L480 552L480 550L481 550L481 548L482 548L482 546L483 546L483 544L484 544L484 542L485 542L485 539L486 539L486 537L487 537L487 535L488 535L488 533L489 533L489 531L490 531L490 529L491 529L491 527C491 527 491.5 528 492 527C492.5 526 493.3 522.2 494 521C494.7 519.8 495.7 520.5 496 520C496.3 519.5 496 518 496 518L497 518C497 518 496.7 516.5 497 516C497.3 515.5 498.3 516.2 499 515C499.7 513.8 500.3 510.2 501 509C501.7 507.8 502.5 508.8 503 508C503.5 507.2 503.5 504.8 504 504C504.5 503.2 505.7 503.5 506 503C506.3 502.5 505.7 501.5 506 501C506.3 500.5 507.7 500.5 508 500C508.3 499.5 508 498 508 498C508 498 508.7 498.5 509 498C509.3 497.5 509.5 495.7 510 495C510.5 494.3 511.7 494.5 512 494C512.3 493.5 512 492 512 492L513 492C513 492 512.7 490.5 513 490C513.3 489.5 514.7 489.5 515 489C515.3 488.5 514.5 487.5 515 487C515.5 486.5 517.5 486.5 518 486C518.5 485.5 518 484 518 484L519 484C519 484 519.5 480.8 520 480C520.5 479.2 521.7 479.5 522 479C522.3 478.5 521.5 477.7 522 477C522.5 476.3 524.5 475.7 525 475C525.5 474.3 525 473 525 473L527 473C527 473 527.2 470.2 528 469C528.8 467.8 531.2 467.2 532 466C532.8 464.8 531.8 463.5 533 462C534.2 460.5 538 458.2 539 457C540 455.8 539 455 539 455C539 455 539.7 455.5 540 455C540.3 454.5 540.2 453 541 452C541.8 451 544.3 449.8 545 449C545.7 448.2 544 448.2 545 447C546 445.8 550 443.2 551 442C552 440.8 551 440 551 440L552 440C552 440 551.5 439.5 552 439C552.5 438.5 554.5 437.7 555 437C555.5 436.3 554.2 436 555 435C555.8 434 559.2 432 560 431C560.8 430 559 430.2 560 429C561 427.8 565 425.2 566 424C567 422.8 566 422 566 422L567 422L567 421L568 421L568 420L569 420C569 420 567.7 420.3 569 419C570.3 417.7 575.7 413.5 577 412C578.3 410.5 577 410 577 410L578 410L578 409L579 409L579 408C579 408 578.7 409.3 580 408C581.3 406.7 585.5 401.3 587 400C588.5 398.7 588.5 400.5 589 400C589.5 399.5 589.7 397.5 590 397C590.3 396.5 590.2 397.8 591 397C591.8 396.2 594 392.8 595 392C596 391.2 597 392 597 392L597 391L598 391L598 390C598 390 597.7 391.3 599 390C600.3 388.7 604.5 383.3 606 382C607.5 380.7 607 383 608 382C609 381 611 377 612 376C613 375 614 376 614 376L614 375L615 375L615 374C615 374 614.7 375.3 616 374C617.3 372.7 621.5 367.3 623 366C624.5 364.7 623.7 367.2 625 366C626.3 364.8 629.7 360.2 631 359C632.3 357.8 631.8 360 633 359C634.2 358 636.8 354 638 353C639.2 352 640 353 640 353L640 352C640 352 640.3 352.7 641 352C641.7 351.3 643.2 348.7 644 348C644.8 347.3 645.2 348.7 646 348C646.8 347.3 648.2 344.7 649 344C649.8 343.3 650.3 344.5 651 344C651.7 343.5 652.3 341.5 653 341C653.7 340.5 654.3 341.5 655 341C655.7 340.5 656.3 338.5 657 338C657.7 337.5 658.2 338.7 659 338C659.8 337.3 661.2 334.7 662 334C662.8 333.3 663.5 334.3 664 334C664.5 333.7 664.5 332.3 665 332C665.5 331.7 666.2 332.7 667 332C667.8 331.3 669.2 328.7 670 328C670.8 327.3 671.5 328.3 672 328C672.5 327.7 672.5 326.3 673 326C673.5 325.7 674.5 326.3 675 326C675.5 325.7 675.5 324.3 676 324C676.5 323.7 677.5 324.3 678 324C678.5 323.7 678.5 322.3 679 322C679.5 321.7 680.3 322.5 681 322C681.7 321.5 682.3 319.5 683 319C683.7 318.5 684.5 319.3 685 319C685.5 318.7 685.5 317.3 686 317C686.5 316.7 688 317 688 317C688 317 687.5 316.3 688 316C688.5 315.7 690.3 315.5 691 315C691.7 314.5 691.2 313.5 692 313C692.8 312.5 695.2 312.5 696 312C696.8 311.5 696.5 310.3 697 310C697.5 309.7 699 310 699 310C699 310 698.5 309.3 699 309C699.5 308.7 701.3 308.5 702 308C702.7 307.5 702.5 306.3 703 306C703.5 305.7 705 306 705 306C705 306 704 305.5 705 305C706 304.5 709.8 303.7 711 303C712.2 302.3 711.5 301.3 712 301C712.5 300.7 714 301 714 301C714 301 713.7 300.3 714 300C714.3 299.7 715.7 300.3 716 299C716.3 297.7 716 292 716 292L715 292L716 278L717 278L717 275L718 275L718 272L719 272L720 268C720 268 720.7 268.5 721 268C721.3 267.5 721.7 265.5 722 265C722.3 264.5 723 265 723 265L723 263C723 263 722.3 263.3 722 263C721.7 262.7 721.8 261.5 721 261C720.2 260.5 718 260.7 717 260C716 259.3 716 257.7 715 257C714 256.3 711.8 256.5 711 256C710.2 255.5 710.5 254.3 710 254C709.5 253.7 708 254 708 254L708 253C708 253 704.8 252.5 704 252C703.2 251.5 703.5 250.3 703 250C702.5 249.7 701 250 701 250C701 250 702 249.5 701 249C700 248.5 696.2 247.7 695 247C693.8 246.3 694.5 245.3 694 245C693.5 244.7 692 245 692 245L692 244L690 244L690 243L688 243L688 242L686 242L686 241L683 241L683 240L681 240L681 239L679 239L679 238L677 238L677 237L675 237L675 236L672 236L672 235L670 235L670 234L668 234L668 233L665 233L665 232L662 232L662 231L660 231L660 230L656 230L656 229L653 229L653 228L650 228L650 227L647 227L647 226L644 226L644 225L640 225L640 224L637 224L637 223L632 223L632 222L627 222L627 221L620 221L620 220L612 220L612 219L581 219L581 220L571 220L571 221L566 221L566 222L557 223L557 224L554 224L554 225L551 225L551 226L548 226L548 227L545 227L545 228L543 228L543 229L540 229L540 230L537 230L537 231C537 231 533.8 231.5 533 232C532.2 232.5 532.8 233.5 532 234C531.2 234.5 528.8 234.5 528 235C527.2 235.5 527.5 236.7 527 237C526.5 237.3 525 237 525 237L525 238C525 238 523.5 237.7 523 238C522.5 238.3 522.5 239.7 522 240C521.5 240.3 520.5 239.7 520 240C519.5 240.3 519.5 241.7 519 242C518.5 242.3 518 241.2 517 242C516 242.8 514 246.2 513 247C512 247.8 511 247 511 247L511 249L509 249L509 250L508 250L508 251L507 251L507 252L506 252L506 253L505 253C505 253 506.3 252.7 505 254C503.7 255.3 498.3 259.5 497 261C495.7 262.5 497.8 262 497 263C496.2 264 492.8 266 492 267C491.2 268 492.3 268.5 492 269C491.7 269.5 490.3 269.5 490 270C489.7 270.5 490 272 490 272L489 272L489 274C489 274 488.5 273 488 274C487.5 275 486.7 278.8 486 280C485.3 281.2 484.3 280.5 484 281C483.7 281.5 484 283 484 283L483 283L483 285L482 285L482 288L481 288L481 291L480 291L479 296L478 296L477 304L476 304L476 307L475 307L475 313L474 313L473 325L472 325L472 328L473 328L473 334L472 334L472 335L473 335L473 339L472 339L473 354L474 354L474 357L475 357L475 358L474 358L474 359L475 359L475 365L476 365L476 369L477 369L477 373L478 373L480 385L481 385L482 391L483 391L483 393L484 393L485 399L486 399L486 401L487 401L487 403L488 403L488 406L489 406L489 408L490 408L490 410L491 410C491 410 491.5 414 492 415C492.5 416 493.7 415.5 494 416C494.3 416.5 494 418 494 418L495 418C495 418 495.5 421.2 496 422C496.5 422.8 497.7 422.5 498 423C498.3 423.5 498 425 498 425C498 425 498.5 424 499 425C499.5 426 500.5 430 501 431C501.5 432 501.7 430.5 502 431C502.3 431.5 502.3 433.2 503 434C503.7 434.8 505.5 435.3 506 436C506.5 436.7 505.7 437.5 506 438C506.3 438.5 507.7 438.5 508 439C508.3 439.5 507.7 440.5 508 441C508.3 441.5 509.7 441.5 510 442C510.3 442.5 510 444 510 444L511 444L511 446L512 446L512 452L511 452L511 455C511 455 510.7 454.3 510 455C509.3 455.7 508 458.3 507 459C506 459.7 504 459 504 459L504 460L498 460L498 459L495 459C495 459 495.8 458.8 495 458C494.2 457.2 490.8 455 490 454C489.2 453 490.5 452.7 490 452C489.5 451.3 487.5 450.7 487 450C486.5 449.3 487.3 448.5 487 448C486.7 447.5 485.3 447.5 485 447C484.7 446.5 485.3 445.5 485 445C484.7 444.5 483.3 444.5 483 444C482.7 443.5 483 442 483 442C483 442 482.3 442.5 482 442C481.7 441.5 481.5 439.7 481 439C480.5 438.3 479.3 438.5 479 438C478.7 437.5 479 436 479 436C479 436 478.5 437 478 436C477.5 435 476.7 431.2 476 430C475.3 428.8 474.7 430.2 474 429C473.3 427.8 472.7 424.2 472 423C471.3 421.8 470.3 422.7 470 422C469.7 421.3 470 419 470 419L469 419L469 417L468 417L468 415L467 415L467 412L466 412L466 410L465 410L465 407L464 407L464 405L463 405L463 403L462 403L462 400L461 400L461 398L460 398L459 390L458 390L457 383L456 383L456 379L455 379L455 376L454 376L453 364L452 364L452 360L451 360L452 358L451 358L451 349L450 349L450 323L451 323L451 313L452 313L453 301L454 301L454 297L455 297L455 294L456 294L456 291L457 291L459 282L460 282L460 280L461 280L461 277L462 277L462 275C462 275 462.5 276 463 275C463.5 274 464.3 270.2 465 269C465.7 267.8 466.3 269.2 467 268C467.7 266.8 468 263.5 469 262C470 260.5 472.2 260.2 473 259C473.8 257.8 474 255 474 255C474 255 474.7 255.5 475 255C475.3 254.5 475.5 252.7 476 252C476.5 251.3 477.7 251.5 478 251C478.3 250.5 477.2 250 478 249C478.8 248 482.2 246 483 245C483.8 244 483 243 483 243L484 243L484 242L485 242L485 241L486 241L486 240C486 240 485.7 241.3 487 240C488.3 238.7 492.5 233.3 494 232C495.5 230.7 495.3 232.5 496 232C496.7 231.5 497.3 229.5 498 229C498.7 228.5 499.3 229.5 500 229C500.7 228.5 501.3 226.5 502 226C502.7 225.5 503.3 226.5 504 226C504.7 225.5 505.3 223.5 506 223C506.7 222.5 508 223 508 223C508 223 507.5 222.3 508 222C508.5 221.7 510.3 221.5 511 221C511.7 220.5 511.5 219.3 512 219C512.5 218.7 514 219 514 219L514 218C514 218 515.5 218.3 516 218C516.5 217.7 516.5 216.3 517 216C517.5 215.7 519 216 519 216C519 216 518 215.5 519 215C520 214.5 523.8 213.7 525 213C526.2 212.3 524.8 211.5 526 211C527.2 210.5 532 210 532 210L532 209L534 209L534 208L537 208L537 207L542 206L542 205L547 204L547 203L551 203L551 202L555 202L555 201L560 201L560 200L565 200L565 199L581 198L581 197L608 197L608 198L619 198L619 199L625 199L625 200L632 200L632 201L642 202L642 203L650 204L650 205L657 206L657 207L659 207L659 208L663 208L663 209L665 209L665 210L674 212L674 213L676 213L676 214L678 214L678 215L681 215L681 216L683 216L683 217L685 217L685 218L687 218L687 219L689 219L689 220L692 220L692 221L694 221L694 222L696 222L696 223L698 223L698 224L700 224C700 224 699 224.5 700 225C701 225.5 704.8 226.3 706 227C707.2 227.7 706.5 228.7 707 229C707.5 229.3 709 229 709 229L709 230L711 230C711 230 710 230.5 711 231C712 231.5 715.8 232.3 717 233C718.2 233.7 717.2 234.5 718 235C718.8 235.5 721.2 235.5 722 236C722.8 236.5 722.5 237.7 723 238C723.5 238.3 725 238 725 238C725 238 724.5 238.7 725 239C725.5 239.3 727.3 239.5 728 240C728.7 240.5 728.2 241.5 729 242C729.8 242.5 733 243 733 243L733 244C733 244 733.7 243.7 734 244C734.3 244.3 734.5 245.7 735 246C735.5 246.3 736.5 245.7 737 246C737.5 246.3 737.5 247.7 738 248C738.5 248.3 740 248 740 248L740 247L742 247L742 246L744 246L744 245L747 245L747 244L751 244L751 243L764 242L764 243L776 244L776 245L778 245L778 246L781 246L781 247L783 247C783 247 782 247.5 783 248C784 248.5 788 249.5 789 250ZM753 265L753 266C753 266 749.8 266.5 749 267C748.2 267.5 748.5 268.7 748 269C747.5 269.3 746 269 746 269C746 269 746.7 269.3 746 270C745.3 270.7 742.7 272.2 742 273C741.3 273.8 742.3 274.5 742 275C741.7 275.5 740.3 275.5 740 276C739.7 276.5 740 278 740 278L739 278L739 281L738 281L738 284L737 284L737 294L738 294L738 297L739 297C739 297 739.5 300.2 740 301C740.5 301.8 741.7 301.5 742 302C742.3 302.5 742 304 742 304C742 304 742.2 303.2 743 304C743.8 304.8 746 308.2 747 309C748 309.8 749 309 749 309C749 309 748.5 309.7 749 310C749.5 310.3 751.5 310.7 752 311C752.5 311.3 752 312 752 312L755 312L755 313L771 313L771 312C771 312 774.2 311.5 775 311C775.8 310.5 775.5 309.3 776 309C776.5 308.7 778 309 778 309C778 309 777 309 778 308C779 307 783 304.2 784 303C785 301.8 784 301 784 301L785 301L785 299L786 299L786 296L787 296L787 292L788 292L787 281C787 281 786.5 282 786 281C785.5 280 784.7 276.2 784 275C783.3 273.8 782.3 274.5 782 274C781.7 273.5 782 272 782 272L780 272L780 271C780 271 779.5 271.5 779 271C778.5 270.5 777.7 268.5 777 268C776.3 267.5 775.5 268.3 775 268C774.5 267.7 774.7 266.3 774 266C773.3 265.7 771 266 771 266L771 265L768 265L768 264L756 264L756 265L753 265ZM839 392C837.7 392.3 832 392 832 392L832 391L828 390C828 390 828.5 389.5 828 389C827.5 388.5 825.5 387.7 825 387C824.5 386.3 825.8 386 825 385C824.2 384 820.8 382 820 381C819.2 380 820.7 379.8 820 379C819.3 378.2 816.7 376.8 816 376C815.3 375.2 816.5 374.7 816 374C815.5 373.3 813.5 372.7 813 372C812.5 371.3 813.5 370.7 813 370C812.5 369.3 810.5 368.7 810 368C809.5 367.3 810.7 366.8 810 366C809.3 365.2 806.7 363.8 806 363C805.3 362.2 806 361 806 361L805 361L805 359L804 359L804 357L803 357L803 354L804 354L804 351L805 351L805 349C805 349 805.7 349.3 806 349C806.3 348.7 806.5 347.3 807 347C807.5 346.7 809 347 809 347L809 346L811 346L811 345L817 345L817 346L820 346C820 346 819.7 346.7 820 347C820.3 347.3 821.7 347.5 822 348C822.3 348.5 821.5 349.5 822 350C822.5 350.5 824.5 350.5 825 351C825.5 351.5 825 353 825 353L826 353C826 353 825.7 353.7 826 354C826.3 354.3 827.7 354.5 828 355C828.3 355.5 827.5 356.3 828 357C828.5 357.7 830.5 358.3 831 359C831.5 359.7 831 361 831 361L832 361C832 361 831.3 361.3 832 362C832.7 362.7 835.3 364.2 836 365C836.7 365.8 835.3 366.2 836 367C836.7 367.8 839.3 369.2 840 370C840.7 370.8 839.5 371.3 840 372C840.5 372.7 842.5 373.3 843 374C843.5 374.7 843 376 843 376C843 376 843.7 375.5 844 376C844.3 376.5 844.7 378.5 845 379C845.3 379.5 846 379 846 379L846 381L845 381L846 384L845 384L844 388C844 388 843.3 387.7 843 388C842.7 388.3 842.5 389.7 842 390C841.5 390.3 840.5 389.7 840 390C839.5 390.3 840.3 391.7 839 392ZM596 559C595.3 559.5 594 559 594 559L594 560C594 560 586.7 560.3 585 560C583.3 559.7 584.5 558.3 584 558C583.5 557.7 582 558 582 558L582 557L581 557L581 556L580 556L580 555L579 555L579 554L578 554L578 553L577 553C577 553 578.3 553.3 577 552C575.7 550.7 570.3 546.5 569 545C567.7 543.5 569 543 569 543L568 543L568 542L567 542L567 541L566 541L566 540L565 540L565 539L564 539L564 538L563 538L563 537L562 537L562 536L561 536L561 535L560 535L560 534L559 534C559 534 560.3 534.3 559 533C557.7 531.7 552.3 527.5 551 526C549.7 524.5 551.8 525 551 524C550.2 523 546.8 522.2 546 520C545.2 517.8 546 511 546 511L547 511L547 509C547 509 547.5 509.5 548 509C548.5 508.5 549.3 506.5 550 506C550.7 505.5 552 506 552 506L552 505L560 505L560 506C560 506 561.5 505.7 562 506C562.5 506.3 562.5 507.7 563 508C563.5 508.3 565 508 565 508C565 508 564.2 508.2 565 509C565.8 509.8 569.2 512 570 513C570.8 514 570 515 570 515L571 515L571 516L572 516L572 517L573 517L573 518L574 518L574 519L575 519L575 520L576 520L576 521L577 521L577 522L578 522L578 523L579 523L579 524L580 524L580 525L581 525C581 525 579.7 524.7 581 526C582.3 527.3 587.7 531.5 589 533C590.3 534.5 589 535 589 535L590 535C590 535 588.7 534.7 590 536C591.3 537.3 596.7 541.5 598 543C599.3 544.5 597.7 544.5 598 545C598.3 545.5 599.7 544.5 600 546C600.3 547.5 600 554 600 554L599 554L599 556C599 556 598.5 555.5 598 556C597.5 556.5 596.7 558.5 596 559ZM638 586L638 587C638 587 635 587.3 634 588C633 588.7 632.7 590.5 632 591C631.3 591.5 630 591 630 591C630 591 630.8 591.2 630 592C629.2 592.8 625.8 595 625 596C624.2 597 625.3 597.5 625 598C624.7 598.5 623.3 598.5 623 599C622.7 599.5 623 601 623 601L622 601L622 603L621 603L621 606L620 606L620 609L619 609L619 612L618 612L618 614L619 614L619 617L618 617L619 620L618 620L618 621L619 621L619 625L620 625L621 631C621 631 621.5 630 622 631C622.5 632 623.2 635.7 624 637C624.8 638.3 626.5 638.3 627 639C627.5 639.7 627 641 627 641C627 641 628 640.2 629 641C630 641.8 632 645.2 633 646C634 646.8 635 646 635 646L635 647L637 647L637 648L639 648L639 649L646 650L646 651L658 651L658 650L663 650L663 649L666 649C666 649 665 648.5 666 648C667 647.5 670.3 647.2 672 646C673.7 644.8 675 641.8 676 641C677 640.2 678 641 678 641C678 641 677.5 639.7 678 639C678.5 638.3 680.5 637.7 681 637C681.5 636.3 681 635 681 635C681 635 681.7 635.5 682 635C682.3 634.5 682.7 632.5 683 632C683.3 631.5 684 632 684 632L684 629L685 629L685 626L686 626L686 619L687 619L684 604L683 604C683 604 682.5 600.8 682 600C681.5 599.2 680.3 599.5 680 599C679.7 598.5 680 597 680 597C680 597 680 598 679 597C678 596 675.2 592 674 591C672.8 590 672.5 591.3 672 591C671.5 590.7 671.5 589.3 671 589C670.5 588.7 669 589 669 589L669 588L667 588L667 587L665 587L665 586L663 586L663 585L659 585L659 584L644 584L644 585L638 586ZM468 653L468 654L462 654L462 655C462 655 458.8 655.5 458 656C457.2 656.5 457.5 657.7 457 658C456.5 658.3 455 658 455 658C455 658 456.2 657.8 455 659C453.8 660.2 449.2 663.7 448 665C446.8 666.3 448 667 448 667L447 667L447 669L446 669L446 671L445 671L445 673L444 673L444 676L443 676L443 677L444 677L444 678L443 678L443 687L444 687L444 690L445 690L445 693C445 693 445.5 692 446 693C446.5 694 447.5 698 448 699C448.5 700 448.2 698.2 449 699C449.8 699.8 452 703.2 453 704C454 704.8 454.5 703.7 455 704C455.5 704.3 455.5 705.7 456 706C456.5 706.3 458 706 458 706L458 707L460 707L460 708L463 708L463 709L474 710L474 709L479 709L479 708L481 708L481 707C481 707 483.3 707.3 484 707C484.7 706.7 484.5 705.3 485 705C485.5 704.7 487 705 487 705C487 705 486 705 487 704C488 703 492 700.2 493 699C494 697.8 492.7 697.5 493 697C493.3 696.5 494.7 696.5 495 696C495.3 695.5 495 694 495 694L496 694L496 692L497 692L497 689L498 689L498 674L497 674C497 674 496.5 670 496 669C495.5 668 494.3 668.5 494 668C493.7 667.5 494.3 666.5 494 666C493.7 665.5 492.3 665.5 492 665C491.7 664.5 492 663 492 663C492 663 491.5 663.5 491 663C490.5 662.5 489.7 660.5 489 660C488.3 659.5 487.5 660.3 487 660C486.5 659.7 486.5 658.3 486 658C485.5 657.7 484.5 658.3 484 658C483.5 657.7 483.7 656.3 483 656C482.3 655.7 480 656 480 656L480 655L478 655L478 654L468 653Z"/></svg>