<svg xmlns="http://www.w3.org/2000/svg" viewBox="0 0 1254 1254" shape-rendering="geometricPrecision"><path fill="#5b5a5c" d="M621 256L634 256L634 257C634 257 638.8 257.5 640 258C641.2 258.5 640.5 259.7 641 260C641.5 260.3 643 260 643 260C643 260 641.8 259.8 643 261C644.2 262.2 648.8 265.7 650 267C651.2 268.3 650 269 650 269L651 269L651 271L652 271L652 273L653 273L653 276L654 276L654 282L655 282L656 292L657 292L658 301L659 301L661 313L662 313L662 316L663 316L663 320L664 320L664 323L665 323L665 326L666 326L666 329L667 329L667 332L668 332L668 335L669 335L671 344L672 344L673 349L674 349L674 351L675 351L675 354L676 354L676 356L677 356L677 358L678 358L678 361L679 361L679 363L680 363L680 365L681 365L681 367L682 367L682 369L683 369L683 371L684 371L684 373L685 373C685 373 685.5 377 686 378C686.5 379 687.7 378.5 688 379C688.3 379.5 688 381 688 381L689 381L689 383L690 383L690 385L691 385L691 387C691 387 691.5 386 692 387C692.5 388 693.3 391.8 694 393C694.7 394.2 695.5 393.2 696 394C696.5 394.8 696.5 397.2 697 398C697.5 398.8 698.3 397.8 699 399C699.7 400.2 700.3 403.8 701 405C701.7 406.2 702.7 405.5 703 406C703.3 406.5 702.7 407.5 703 408C703.3 408.5 704.5 408.2 705 409C705.5 409.8 705.5 412.2 706 413C706.5 413.8 707.7 413.5 708 414C708.3 414.5 707.7 415.5 708 416C708.3 416.5 709.7 416.5 710 417C710.3 417.5 709.7 418.5 710 419C710.3 419.5 711.7 419.5 712 420C712.3 420.5 711.7 421.5 712 422C712.3 422.5 713.7 422.5 714 423C714.3 423.5 713.5 424.3 714 425C714.5 425.7 716.5 426.3 717 427C717.5 427.7 716.7 428.5 717 429C717.3 429.5 718.7 429.5 719 430C719.3 430.5 718.5 431.3 719 432C719.5 432.7 721.5 433.3 722 434C722.5 434.7 721.5 435.3 722 436C722.5 436.7 724.5 437.3 725 438C725.5 438.7 724.3 439.2 725 440C725.7 440.8 728.3 442.2 729 443C729.7 443.8 728.3 444.2 729 445C729.7 445.8 732.3 447.2 733 448C733.7 448.8 732 448.8 733 450C734 451.2 738 453.8 739 455C740 456.2 737.7 455.5 739 457C740.3 458.5 745.7 462.5 747 464C748.3 465.5 747 466 747 466L748 466L748 467L749 467L749 468L750 468L750 469L751 469L751 470L752 470L752 471L753 471L753 472C753 472 752.7 470.7 754 472C755.3 473.3 759.5 478.7 761 480C762.5 481.3 763 480 763 480L763 481L764 481L764 482C764 482 763.7 480.7 765 482C766.3 483.3 770.5 488.7 772 490C773.5 491.3 773 489.2 774 490C775 490.8 777 494.2 778 495C779 495.8 779 494.2 780 495C781 495.8 783 499.2 784 500C785 500.8 785.2 499.3 786 500C786.8 500.7 788.2 503.3 789 504C789.8 504.7 791 504 791 504L791 505C791 505 791.7 504.7 792 505C792.3 505.3 792.5 506.7 793 507C793.5 507.3 794.3 506.5 795 507C795.7 507.5 796.3 509.5 797 510C797.7 510.5 798.5 509.7 799 510C799.5 510.3 799.5 511.7 800 512C800.5 512.3 801.3 511.5 802 512C802.7 512.5 803.3 514.5 804 515C804.7 515.5 805.5 514.7 806 515C806.5 515.3 806.5 516.7 807 517C807.5 517.3 808.5 516.7 809 517C809.5 517.3 809.5 518.7 810 519C810.5 519.3 811.5 518.7 812 519C812.5 519.3 812.5 520.7 813 521C813.5 521.3 815 521 815 521C815 521 814.5 521.7 815 522C815.5 522.3 817.3 522.5 818 523C818.7 523.5 818.2 524.5 819 525C819.8 525.5 823 526 823 526C823 526 822.5 526.7 823 527C823.5 527.3 825.3 527.5 826 528C826.7 528.5 825.8 529.3 827 530C828.2 530.7 831.8 531.3 833 532C834.2 532.7 832.8 533.3 834 534C835.2 534.7 838.8 535.3 840 536C841.2 536.7 840.5 537.7 841 538C841.5 538.3 843 538 843 538L843 539L845 539L845 540L847 540L847 541L849 541L849 542L851 542L851 543L853 543L853 544L855 544L855 545L857 545L857 546L859 546L859 547L861 547L861 548L863 548L863 549L865 549L865 550L868 550L868 551L870 551L870 552L872 552L872 553L874 553L874 554L877 554L877 555L879 555L879 556L885 557L885 558L887 558L887 559L890 559L890 560L892 560L892 561L895 561L895 562L898 562L898 563L901 563L901 564L905 564L905 565L908 565L908 566L911 566L911 567L914 567L914 568L918 568L918 569L921 569L921 570L925 570L925 571L929 571L929 572L933 572L933 573L937 573L937 574L942 574L942 575L947 575L947 576L956 577L956 578L959 578C959 578 958 578.5 959 579C960 579.5 964 580.5 965 581C966 581.5 963.8 580.8 965 582C966.2 583.2 970.8 586.7 972 588C973.2 589.3 972 590 972 590L973 590L973 592L974 592L974 594L975 594L975 597L976 597L976 603L977 603L975 616L974 616C974 616 973.7 619 973 620C972.3 621 970.5 621.3 970 622C969.5 622.7 970 624 970 624C970 624 969.3 623.7 969 624C968.7 624.3 968.5 625.7 968 626C967.5 626.3 966.7 625.5 966 626C965.3 626.5 964.7 628.5 964 629C963.3 629.5 962 629 962 629L962 630L960 630L960 631L958 631L958 632L955 632L955 633L943 634L943 635L938 635L938 636L934 636L934 637L930 637L930 638L918 640L918 641L911 642L911 643L908 643L908 644L904 644L904 645L895 647L895 648L893 648L893 649L887 650L887 651L885 651L885 652L879 653L879 654L877 654L877 655L875 655L875 656L873 656L873 657L870 657L870 658L868 658L868 659L866 659L866 660L863 660L863 661L861 661L861 662L859 662L859 663L857 663L857 664L855 664L855 665L853 665L853 666L851 666L851 667L849 667C849 667 850 667.5 849 668C848 668.5 844.2 669.3 843 670C841.8 670.7 843.2 671.3 842 672C840.8 672.7 837.2 673.3 836 674C834.8 674.7 835.5 675.7 835 676C834.5 676.3 833 676 833 676L833 677C833 677 831.5 676.7 831 677C830.5 677.3 830.8 678.5 830 679C829.2 679.5 826.8 679.5 826 680C825.2 680.5 825.8 681.5 825 682C824.2 682.5 821.8 682.5 821 683C820.2 683.5 820.5 684.7 820 685C819.5 685.3 818.5 684.7 818 685C817.5 685.3 817.5 686.7 817 687C816.5 687.3 815.5 686.7 815 687C814.5 687.3 814.5 688.7 814 689C813.5 689.3 812.7 688.5 812 689C811.3 689.5 810.7 691.5 810 692C809.3 692.5 808.5 691.7 808 692C807.5 692.3 807.5 693.7 807 694C806.5 694.3 805.7 693.5 805 694C804.3 694.5 803.7 696.5 803 697C802.3 697.5 801.5 696.7 801 697C800.5 697.3 800.5 698.7 800 699C799.5 699.3 798.7 698.5 798 699C797.3 699.5 796.7 701.5 796 702C795.3 702.5 794.7 701.5 794 702C793.3 702.5 792.7 704.5 792 705C791.3 705.5 790 705 790 705L790 706C790 706 789.7 705.3 789 706C788.3 706.7 786.8 709.3 786 710C785.2 710.7 785 709.2 784 710C783 710.8 781 714.2 780 715C779 715.8 779.2 714 778 715C776.8 716 774.2 720 773 721C771.8 722 771 721 771 721L771 722L770 722L770 723L769 723L769 724L768 724L768 725L767 725L767 726L766 726L766 727L765 727L765 728L764 728L764 729L763 729L763 730L762 730L762 731L761 731L761 732L760 732L760 733L759 733L759 734L758 734L758 735L757 735L757 736L756 736L756 737L755 737L755 738L754 738L754 739L753 739L753 740L752 740L752 741L751 741L751 742L750 742L750 743L749 743L749 744L748 744L748 745L747 745C747 745 748.3 744.7 747 746C745.7 747.3 740.3 751.5 739 753C737.7 754.5 740 753.8 739 755C738 756.2 734 758.8 733 760C732 761.2 733 762 733 762L732 762C732 762 732.7 762.3 732 763C731.3 763.7 728.7 765.2 728 766C727.3 766.8 728.7 767.2 728 768C727.3 768.8 724.7 770.2 724 771C723.3 771.8 724.3 772.5 724 773C723.7 773.5 722.3 773.5 722 774C721.7 774.5 722.5 775.3 722 776C721.5 776.7 719.5 777.3 719 778C718.5 778.7 719.5 779.3 719 780C718.5 780.7 716.5 781.3 716 782C715.5 782.7 716.3 783.5 716 784C715.7 784.5 714.3 784.5 714 785C713.7 785.5 714.5 786.3 714 787C713.5 787.7 711.5 788.3 711 789C710.5 789.7 711.3 790.5 711 791C710.7 791.5 709.3 791.5 709 792C708.7 792.5 709 794 709 794C709 794 708.3 793.5 708 794C707.7 794.5 707.5 796.3 707 797C706.5 797.7 705.5 797.2 705 798C704.5 798.8 704.5 801.2 704 802C703.5 802.8 702.3 802.5 702 803C701.7 803.5 702.3 804.5 702 805C701.7 805.5 700.5 805.2 700 806C699.5 806.8 699 810 699 810C699 810 698.3 809.5 698 810C697.7 810.5 697.5 812.3 697 813C696.5 813.7 695.3 813.5 695 814C694.7 814.5 695 816 695 816L694 816L694 818L693 818L693 820C693 820 692.5 819 692 820C691.5 821 690.7 824.8 690 826C689.3 827.2 688.3 826.5 688 827C687.7 827.5 688 829 688 829L687 829L687 831L686 831L686 833L685 833L685 835L684 835L684 837L683 837L683 839L682 839L682 841L681 841L681 843L680 843L680 846L679 846L679 848L678 848L678 850L677 850L677 852L676 852L676 855L675 855L675 857L674 857L674 860L673 860L673 862L672 862L672 865L671 865L671 867L670 867L669 873L668 873L667 878L666 878L666 882L665 882L665 885L664 885L664 888L663 888L663 891L662 891L662 894L661 894L661 898L660 898L660 902L659 902L659 906L658 906L658 910L657 910L657 914L656 914L656 919L655 919L655 924L654 924L654 930L653 930L653 933C653 933 652.5 932 652 933C651.5 934 650.5 938 650 939C649.5 940 649.3 938.5 649 939C648.7 939.5 648.3 941.5 648 942C647.7 942.5 647.3 941.7 647 942C646.7 942.3 646.5 943.7 646 944C645.5 944.3 644.7 943.5 644 944C643.3 944.5 642.7 946.5 642 947C641.3 947.5 640 947 640 947L640 948L638 948L638 949L635 949L635 950L630 950L630 951L624 951L624 950L619 950L619 949L617 949L617 948L614 948C614 948 614.5 947.3 614 947C613.5 946.7 611.5 946.3 611 946C610.5 945.7 612 946 611 945C610 944 606 941.2 605 940C604 938.8 605.3 938.5 605 938C604.7 937.5 603.3 937.7 603 937C602.7 936.3 603 934 603 934L602 934L602 932L601 932L600 921L599 921L599 916L598 916L598 912L597 912L597 908L596 908L595 899L594 899L594 896L593 896L593 892L592 892L592 889L591 889L591 885L590 885L590 882L589 882L589 879L588 879L586 870L585 870L585 868L584 868L584 865L583 865L583 863L582 863L582 860L581 860L581 858L580 858L580 855L579 855L579 853L578 853L578 851L577 851L577 848L576 848L576 846L575 846L575 844L574 844L574 842L573 842L573 839L572 839L572 837L571 837L571 835C571 835 570.5 836 570 835C569.5 834 568.7 830.2 568 829C567.3 827.8 566.3 828.5 566 828C565.7 827.5 566 826 566 826L565 826L565 824L564 824L564 822L563 822L563 820C563 820 562.5 821 562 820C561.5 819 560.5 815 560 814C559.5 813 559.3 814.5 559 814C558.7 813.5 558.5 811.7 558 811C557.5 810.3 556.5 810.8 556 810C555.5 809.2 555.5 806.8 555 806C554.5 805.2 553.5 805.8 553 805C552.5 804.2 552.5 801.8 552 801C551.5 800.2 550.3 800.5 550 800C549.7 799.5 550.3 798.5 550 798C549.7 797.5 548.3 797.5 548 797C547.7 796.5 548.3 795.5 548 795C547.7 794.5 546.5 794.8 546 794C545.5 793.2 545.7 791 545 790C544.3 789 542.5 788.7 542 788C541.5 787.3 542.3 786.5 542 786C541.7 785.5 540.3 785.5 540 785C539.7 784.5 540.3 783.5 540 783C539.7 782.5 538.3 782.5 538 782C537.7 781.5 538.5 780.7 538 780C537.5 779.3 535.5 778.7 535 778C534.5 777.3 535 776 535 776L534 776C534 776 534.3 775.3 534 775C533.7 774.7 532.3 774.5 532 774C531.7 773.5 532.5 772.7 532 772C531.5 771.3 529.5 770.7 529 770C528.5 769.3 529.8 769 529 768C528.2 767 524.8 765 524 764C523.2 763 524.8 763 524 762C523.2 761 519.8 759 519 758C518.2 757 520.2 757.3 519 756C517.8 754.7 513.2 751.3 512 750C510.8 748.7 512 748 512 748L511 748L511 747L510 747L510 746L509 746L509 745L508 745L508 744L507 744L507 743L506 743L506 742L505 742L505 741L504 741L504 740L503 740L503 739L502 739L502 738L501 738L501 737L500 737L500 736L499 736L499 735L498 735L498 734L497 734L497 733L496 733L496 732L495 732L495 731C495 731 495.3 732.3 494 731C492.7 729.7 488.5 724.3 487 723C485.5 721.7 486.5 724.3 485 723C483.5 721.7 479.5 716.3 478 715C476.5 713.7 477 715.8 476 715C475 714.2 473 710.8 472 710C471 709.2 470.8 710.7 470 710C469.2 709.3 467.8 706.7 467 706C466.2 705.3 465.8 706.7 465 706C464.2 705.3 462.8 702.7 462 702C461.2 701.3 460.7 702.5 460 702C459.3 701.5 458.7 699.5 458 699C457.3 698.5 456 699 456 699L456 698C456 698 455.3 698.3 455 698C454.7 697.7 454.5 696.3 454 696C453.5 695.7 452.7 696.5 452 696C451.3 695.5 450.7 693.5 450 693C449.3 692.5 448.5 693.3 448 693C447.5 692.7 447.5 691.3 447 691C446.5 690.7 445.5 691.3 445 691C444.5 690.7 444.5 689.3 444 689C443.5 688.7 442.5 689.3 442 689C441.5 688.7 441.5 687.3 441 687C440.5 686.7 439.5 687.3 439 687C438.5 686.7 438.5 685.3 438 685C437.5 684.7 436 685 436 685C436 685 436.5 684.3 436 684C435.5 683.7 433.7 683.5 433 683C432.3 682.5 432.8 681.5 432 681C431.2 680.5 428.8 680.5 428 680C427.2 679.5 427.8 678.5 427 678C426.2 677.5 423.8 677.5 423 677C422.2 676.5 423.2 675.7 422 675C420.8 674.3 417.2 673.7 416 673C414.8 672.3 415.5 671.3 415 671C414.5 670.7 413 671 413 671L413 670L411 670L411 669L409 669L409 668L407 668L407 667L405 667C405 667 406 666.5 405 666C404 665.5 400.2 664.7 399 664C397.8 663.3 398.7 662.3 398 662C397.3 661.7 395 662 395 662L395 661L393 661L393 660L391 660L391 659L389 659L389 658L386 658L386 657L384 657L384 656L382 656L382 655L380 655L380 654L377 654L377 653L375 653L375 652L372 652L372 651L370 651L370 650L364 649L364 648L362 648L362 647L359 647L359 646L356 646L356 645L353 645L353 644L350 644L350 643L346 643L346 642L343 642L343 641L339 641L339 640L335 640L335 639L332 639L332 638L323 637L323 636L319 636L319 635L314 635L314 634L308 634L308 633L297 632L297 631L295 631C295 631 296 630.5 295 630C294 629.5 290 628.5 289 628C288 627.5 290.2 628.2 289 627C287.8 625.8 283.2 622.3 282 621C280.8 619.7 282 619 282 619L281 619L281 617L280 617L280 615L279 615L279 612L278 612L278 606L277 606L277 603L278 603L278 597L279 597L279 594C279 594 279.5 595 280 594C280.5 593 281.5 589 282 588C282.5 587 282 589 283 588C284 587 286.8 583 288 582C289.2 581 289.5 582.3 290 582C290.5 581.7 290 580.5 291 580C292 579.5 296 579 296 579L296 578L299 578L299 577L310 576L310 575L315 575L315 574L320 574L320 573L325 573L325 572L329 572L329 571L333 571L333 570L345 568L345 567L348 567L348 566L351 566L351 565L354 565L354 564L357 564L357 563L364 562L364 561L366 561L366 560L372 559L372 558L377 557L377 556L379 556L379 555L382 555L382 554L384 554L384 553L386 553L386 552L389 552L389 551L391 551L391 550L393 550L393 549L395 549L395 548L397 548L397 547L399 547L399 546L401 546L401 545C401 545 405 544.5 406 544C407 543.5 406.5 542.3 407 542C407.5 541.7 409 542 409 542L409 541L411 541L411 540L413 540C413 540 412 539.5 413 539C414 538.5 417.8 537.7 419 537C420.2 536.3 419.5 535.3 420 535C420.5 534.7 422 535 422 535L422 534C422 534 423.5 534.3 424 534C424.5 533.7 423.8 532.7 425 532C426.2 531.3 429.8 530.7 431 530C432.2 529.3 431.5 528.3 432 528C432.5 527.7 433.5 528.3 434 528C434.5 527.7 434.2 526.5 435 526C435.8 525.5 438.2 525.5 439 525C439.8 524.5 439.5 523.3 440 523C440.5 522.7 441.5 523.3 442 523C442.5 522.7 442.5 521.3 443 521C443.5 520.7 444.3 521.5 445 521C445.7 520.5 446.3 518.5 447 518C447.7 517.5 448.5 518.3 449 518C449.5 517.7 449.5 516.3 450 516C450.5 515.7 451.5 516.3 452 516C452.5 515.7 452.5 514.3 453 514C453.5 513.7 454.3 514.5 455 514C455.7 513.5 456.3 511.5 457 511C457.7 510.5 458.3 511.5 459 511C459.7 510.5 460.3 508.5 461 508C461.7 507.5 462.3 508.5 463 508C463.7 507.5 464.3 505.5 465 505C465.7 504.5 466.2 505.7 467 505C467.8 504.3 469.2 501.7 470 501C470.8 500.3 471.2 501.7 472 501C472.8 500.3 474.2 497.7 475 497C475.8 496.3 477 497 477 497L477 496C477 496 477 497 478 496C479 495 481.8 491 483 490C484.2 489 485 490 485 490L485 489L486 489L486 488L487 488L487 487L488 487L488 486L489 486L489 485L490 485L490 484L491 484L491 483L492 483L492 482L493 482L493 481C493 481 492.7 482.3 494 481C495.3 479.7 499.3 474.5 501 473C502.7 471.5 503.5 472.5 504 472C504.5 471.5 504 470 504 470L505 470L505 469L506 469L506 468L507 468L507 467L508 467C508 467 506.7 467.3 508 466C509.3 464.7 514.7 460.5 516 459C517.3 457.5 515 458.2 516 457C517 455.8 521 453.2 522 452C523 450.8 522 450 522 450L523 450C523 450 522.5 449.5 523 449C523.5 448.5 525.5 447.7 526 447C526.5 446.3 525.3 445.8 526 445C526.7 444.2 529.3 442.8 530 442C530.7 441.2 529.5 440.7 530 440C530.5 439.3 532.5 438.7 533 438C533.5 437.3 533 436 533 436L534 436C534 436 533.7 435.3 534 435C534.3 434.7 535.7 434.5 536 434C536.3 433.5 535.5 432.7 536 432C536.5 431.3 538.5 430.7 539 430C539.5 429.3 538.7 428.5 539 428C539.3 427.5 540.7 427.5 541 427C541.3 426.5 540.5 425.7 541 425C541.5 424.3 543.5 423.7 544 423C544.5 422.3 543.7 421.5 544 421C544.3 420.5 545.5 420.8 546 420C546.5 419.2 546.5 416.8 547 416C547.5 415.2 548.7 415.5 549 415C549.3 414.5 548.7 413.5 549 413C549.3 412.5 550.5 412.8 551 412C551.5 411.2 551.5 408.8 552 408C552.5 407.2 553.5 407.8 554 407C554.5 406.2 555 403 555 403C555 403 555.7 403.5 556 403C556.3 402.5 556.5 400.7 557 400C557.5 399.3 558.7 399.5 559 399C559.3 398.5 559 397 559 397L560 397L560 395L561 395L561 393C561 393 561.5 394 562 393C562.5 392 563.3 388.2 564 387C564.7 385.8 565.7 386.5 566 386C566.3 385.5 566 384 566 384L567 384L567 382L568 382L568 380L569 380L569 378L570 378L570 376L571 376L571 374L572 374L572 371L573 371L573 369L574 369L574 367L575 367L575 365L576 365L576 363L577 363L577 360L578 360L578 358L579 358L579 355L580 355L580 353L581 353L581 351L582 351L582 348L583 348L583 345L584 345L584 343L585 343L585 340L586 340L586 337L587 337L587 334L588 334L588 331L589 331L589 328L590 328L590 325L591 325L591 321L592 321L592 318L593 318L593 314L594 314L596 302L597 302L597 297L598 297L598 292L599 292L599 287L600 287L600 281L601 281L602 273C602 273 602.5 274 603 273C603.5 272 604.2 268.3 605 267C605.8 265.7 607.3 265.8 608 265C608.7 264.2 608.5 262.5 609 262C609.5 261.5 610.3 262.5 611 262C611.7 261.5 612.3 259.5 613 259C613.7 258.5 615 259 615 259L615 258L617 258L617 257L621 257L621 256ZM626 283L625 295L624 295L624 300L623 300L623 305L622 305L622 310L621 310L621 314L620 314L618 326L617 326L617 329L616 329L616 332L615 332L615 335L614 335L614 339L613 339L612 345L611 345L611 347L610 347L610 350L609 350L607 359L606 359L605 364L604 364L604 366L603 366L603 369L602 369L602 371L601 371L601 373L600 373L600 376L599 376L599 378L598 378L598 380L597 380L597 382L596 382L596 384L595 384L595 386L594 386L594 388L593 388L593 391L592 391C592 391 591.5 394.2 591 395C590.5 395.8 589.3 395.5 589 396C588.7 396.5 589 398 589 398L588 398L588 400L587 400L587 402C587 402 586.5 401 586 402C585.5 403 584.7 406.8 584 408C583.3 409.2 582.7 407.8 582 409C581.3 410.2 580.7 413.8 580 415C579.3 416.2 578.5 415.2 578 416C577.5 416.8 577.5 419.2 577 420C576.5 420.8 575.5 420.2 575 421C574.5 421.8 574.5 424.2 574 425C573.5 425.8 572.3 425.5 572 426C571.7 426.5 572.3 427.5 572 428C571.7 428.5 570.3 428.5 570 429C569.7 429.5 570.3 430.5 570 431C569.7 431.5 568.3 431.5 568 432C567.7 432.5 568.5 433.3 568 434C567.5 434.7 565.5 435.3 565 436C564.5 436.7 565 438 565 438L564 438C564 438 564.3 439.5 564 440C563.7 440.5 562.3 440.5 562 441C561.7 441.5 562.5 442.3 562 443C561.5 443.7 559.5 444.3 559 445C558.5 445.7 559.5 446.3 559 447C558.5 447.7 556.5 448.3 556 449C555.5 449.7 556 451 556 451C556 451 555.3 450.5 555 451C554.7 451.5 554.8 453 554 454C553.2 455 550.7 456.2 550 457C549.3 457.8 550.7 458.2 550 459C549.3 459.8 546.7 461.2 546 462C545.3 462.8 546.5 463.3 546 464C545.5 464.7 543.5 465.3 543 466C542.5 466.7 543 468 543 468L542 468C542 468 542.8 468.2 542 469C541.2 469.8 537.8 472 537 473C536.2 474 537 475 537 475L536 475L536 476L535 476C535 476 536.3 475.7 535 477C533.7 478.3 528.3 482.5 527 484C525.7 485.5 527 486 527 486L526 486L526 487L525 487L525 488L524 488L524 489L523 489L523 490L522 490L522 491L521 491L521 492L520 492L520 493L519 493L519 494L518 494L518 495C518 495 518.3 493.7 517 495C515.7 496.3 511.5 501.7 510 503C508.5 504.3 508 503 508 503L508 504L507 504L507 505C507 505 507.3 503.7 506 505C504.7 506.3 500.5 511.7 499 513C497.5 514.3 498.2 512 497 513C495.8 514 493.2 518 492 519C490.8 520 491 518.2 490 519C489 519.8 487 523.2 486 524C485 524.8 484.7 523.5 484 524C483.3 524.5 482.7 526.5 482 527C481.3 527.5 480.7 526.5 480 527C479.3 527.5 478.7 529.5 478 530C477.3 530.5 476.7 529.5 476 530C475.3 530.5 474.7 532.5 474 533C473.3 533.5 472 533 472 533L472 534C472 534 471.3 533.7 471 534C470.7 534.3 470.5 535.7 470 536C469.5 536.3 468.7 535.5 468 536C467.3 536.5 466.7 538.5 466 539C465.3 539.5 464.5 538.7 464 539C463.5 539.3 463.5 540.7 463 541C462.5 541.3 461.5 540.7 461 541C460.5 541.3 460.5 542.7 460 543C459.5 543.3 458.5 542.7 458 543C457.5 543.3 457.5 544.7 457 545C456.5 545.3 455 545 455 545C455 545 455.5 545.7 455 546C454.5 546.3 452.7 546.5 452 547C451.3 547.5 451.8 548.5 451 549C450.2 549.5 447 550 447 550C447 550 447.5 550.7 447 551C446.5 551.3 444.7 551.5 444 552C443.3 552.5 443.5 553.7 443 554C442.5 554.3 441 554 441 554L441 555C441 555 437.8 555.5 437 556C436.2 556.5 436.8 557.5 436 558C435.2 558.5 432.8 558.5 432 559C431.2 559.5 431.5 560.7 431 561C430.5 561.3 429 561 429 561L429 562L427 562L427 563L425 563L425 564L423 564L423 565L421 565L421 566L419 566L419 567L417 567L417 568L415 568L415 569L413 569L413 570L411 570L411 571L409 571L409 572L407 572L407 573L405 573L405 574L403 574L403 575L401 575L401 576L398 576L398 577L396 577L396 578L394 578L394 579L391 579L391 580L386 581L386 582L384 582L384 583L378 584L378 585L376 585L376 586L373 586L373 587L370 587L370 588L367 588L367 589L364 589L364 590L361 590L361 591L357 591L357 592L354 592L354 593L351 593L351 594L339 596L339 597L334 597L334 598L325 599L325 600L321 600L321 601L315 601L315 602C315 602 306.8 602.5 305 603C303.2 603.5 304 605 304 605C304 605 304.7 604.7 305 605C305.3 605.3 303.7 606.5 306 607C308.3 607.5 319 608 319 608L319 609L323 609L323 610L328 610L328 611L333 611L333 612L337 612L337 613L349 615L349 616L352 616L352 617L355 617L355 618L359 618L359 619L362 619L362 620L371 622L371 623L376 624L376 625L379 625L379 626L381 626L381 627L387 628L387 629L389 629L389 630L391 630L391 631L394 631L394 632L396 632L396 633L398 633L398 634L401 634L401 635L403 635L403 636L405 636L405 637L407 637L407 638L409 638L409 639L411 639L411 640L413 640L413 641L415 641L415 642L417 642C417 642 416 642.5 417 643C418 643.5 421.8 644.3 423 645C424.2 645.7 423.5 646.7 424 647C424.5 647.3 426 647 426 647C426 647 425 647.5 426 648C427 648.5 430.8 649.3 432 650C433.2 650.7 432.2 651.5 433 652C433.8 652.5 436.2 652.5 437 653C437.8 653.5 437.2 654.5 438 655C438.8 655.5 441.2 655.5 442 656C442.8 656.5 442.2 657.5 443 658C443.8 658.5 446.2 658.5 447 659C447.8 659.5 447.5 660.7 448 661C448.5 661.3 449.5 660.7 450 661C450.5 661.3 450.5 662.7 451 663C451.5 663.3 452.5 662.7 453 663C453.5 663.3 453.5 664.7 454 665C454.5 665.3 455.5 664.7 456 665C456.5 665.3 456.5 666.7 457 667C457.5 667.3 458.5 666.7 459 667C459.5 667.3 459.5 668.7 460 669C460.5 669.3 461.3 668.5 462 669C462.7 669.5 463.3 671.5 464 672C464.7 672.5 465.3 671.5 466 672C466.7 672.5 467.3 674.5 468 675C468.7 675.5 470 675 470 675C470 675 469.5 675.7 470 676C470.5 676.3 472.2 676.3 473 677C473.8 677.7 474.3 679.5 475 680C475.7 680.5 476.2 679.3 477 680C477.8 680.7 479.2 683.3 480 684C480.8 684.7 481.2 683.3 482 684C482.8 684.7 484.2 687.3 485 688C485.8 688.7 486.2 687.3 487 688C487.8 688.7 489.2 691.3 490 692C490.8 692.7 491 691.2 492 692C493 692.8 495 696.2 496 697C497 697.8 498 697 498 697L498 698L499 698L499 699C499 699 498.7 697.7 500 699C501.3 700.3 505.5 705.7 507 707C508.5 708.3 509 707 509 707L509 708L510 708L510 709L511 709L511 710L512 710L512 711L513 711L513 712L514 712L514 713L515 713L515 714L516 714L516 715L517 715L517 716L518 716L518 717L519 717L519 718L520 718C520 718 518.7 717.7 520 719C521.3 720.3 526.7 724.5 528 726C529.3 727.5 526.8 726.7 528 728C529.2 729.3 533.8 732.7 535 734C536.2 735.3 533.8 734.7 535 736C536.2 737.3 540.8 740.7 542 742C543.2 743.3 541.3 743.2 542 744C542.7 744.8 545.3 746.2 546 747C546.7 747.8 545.5 748.3 546 749C546.5 749.7 548.5 750.3 549 751C549.5 751.7 548.2 752 549 753C549.8 754 553.2 756 554 757C554.8 758 553.7 758.5 554 759C554.3 759.5 555.7 759.5 556 760C556.3 760.5 555.5 761.3 556 762C556.5 762.7 558.5 763.3 559 764C559.5 764.7 558.7 765.5 559 766C559.3 766.5 560.7 766.5 561 767C561.3 767.5 561 769 561 769C561 769 561.7 768.5 562 769C562.3 769.5 562.3 771.2 563 772C563.7 772.8 565.5 773.3 566 774C566.5 774.7 566 776 566 776C566 776 566.7 775.5 567 776C567.3 776.5 567.5 778.3 568 779C568.5 779.7 569.5 779.2 570 780C570.5 780.8 570.5 783.2 571 784C571.5 784.8 572.7 784.5 573 785C573.3 785.5 573 787 573 787C573 787 573.7 786.5 574 787C574.3 787.5 574.5 789.3 575 790C575.5 790.7 576.7 790.5 577 791C577.3 791.5 577 793 577 793L578 793C578 793 578.5 796.2 579 797C579.5 797.8 580.3 796.8 581 798C581.7 799.2 582.3 802.8 583 804C583.7 805.2 584.7 804.5 585 805C585.3 805.5 585 807 585 807C585 807 585.5 806 586 807C586.5 808 587.3 811.8 588 813C588.7 814.2 589.7 813.5 590 814C590.3 814.5 590 816 590 816L591 816L591 818L592 818L592 820L593 820L593 822L594 822L594 824L595 824L595 827L596 827L596 829L597 829L597 831L598 831L598 833L599 833L599 835L600 835L600 837L601 837L601 840L602 840L602 842L603 842L603 844L604 844L604 847L605 847L606 852L607 852L607 854L608 854L608 857L609 857L609 860L610 860L610 863L611 863L613 872L614 872L614 874L615 874L615 878L616 878L616 881L617 881L617 884L618 884L618 888L619 888L619 892L620 892L620 896L621 896L621 900L622 900L622 904L623 904L623 909L624 909L624 914L625 914C625 914 625.5 921.3 626 923C626.5 924.7 628 924 628 924L628 923L629 923L630 912L631 912L631 907L632 907L632 903L633 903L633 899L634 899L634 895L635 895L635 891L636 891L636 887L637 887L637 884L638 884L638 881L639 881L639 878L640 878L640 874L641 874L641 871L642 871L642 868L643 868L645 859L646 859L646 857L647 857L647 854L648 854L648 852L649 852L649 849L650 849L650 847L651 847L651 844L652 844L652 842L653 842L653 840L654 840L654 837L655 837L655 835L656 835L656 833L657 833L657 831L658 831L658 829L659 829L659 826L660 826L660 824C660 824 660.5 825 661 824C661.5 823 662.3 819.2 663 818C663.7 816.8 664.7 817.5 665 817C665.3 816.5 665 815 665 815L666 815L666 813L667 813L667 811C667 811 667.5 812 668 811C668.5 810 669.3 806.2 670 805C670.7 803.8 671.7 804.5 672 804C672.3 803.5 672 802 672 802L673 802C673 802 673.5 798.8 674 798C674.5 797.2 675.5 797.8 676 797C676.5 796.2 676.5 793.8 677 793C677.5 792.2 678.5 792.8 679 792C679.5 791.2 679.5 788.8 680 788C680.5 787.2 681.7 787.5 682 787C682.3 786.5 681.7 785.5 682 785C682.3 784.5 683.7 784.5 684 784C684.3 783.5 683.7 782.5 684 782C684.3 781.5 685.7 781.5 686 781C686.3 780.5 685.7 779.5 686 779C686.3 778.5 687.7 778.5 688 778C688.3 777.5 687.7 776.5 688 776C688.3 775.5 689.7 775.5 690 775C690.3 774.5 689.7 773.5 690 773C690.3 772.5 691.7 772.5 692 772C692.3 771.5 691.5 770.7 692 770C692.5 769.3 694.5 768.7 695 768C695.5 767.3 694.7 766.5 695 766C695.3 765.5 696.7 765.5 697 765C697.3 764.5 697 763 697 763L698 763C698 763 697.7 762.3 698 762C698.3 761.7 699.7 761.5 700 761C700.3 760.5 699.5 759.7 700 759C700.5 758.3 702.5 757.7 703 757C703.5 756.3 702.3 755.8 703 755C703.7 754.2 706.3 752.8 707 752C707.7 751.2 706.3 750.8 707 750C707.7 749.2 710.3 747.8 711 747C711.7 746.2 710.2 746 711 745C711.8 744 715.2 742 716 741C716.8 740 716 739 716 739L717 739C717 739 715.7 739.3 717 738C718.3 736.7 723.7 732.5 725 731C726.3 729.5 725 729 725 729L726 729L726 728L727 728L727 727L728 727L728 726L729 726L729 725L730 725L730 724L731 724L731 723L732 723L732 722L733 722L733 721L734 721L734 720L735 720L735 719L736 719L736 718L737 718L737 717L738 717L738 716L739 716L739 715C739 715 738.7 716.3 740 715C741.3 713.7 745.5 708.3 747 707C748.5 705.7 749 707 749 707L749 706C749 706 748.7 707.3 750 706C751.3 704.7 755.5 699.3 757 698C758.5 696.7 757.8 699 759 698C760.2 697 762.8 693 764 692C765.2 691 766 692 766 692L766 691C766 691 766.5 691.5 767 691C767.5 690.5 768.3 688.5 769 688C769.7 687.5 770.2 688.7 771 688C771.8 687.3 773.2 684.7 774 684C774.8 683.3 775.3 684.5 776 684C776.7 683.5 777.3 681.5 778 681C778.7 680.5 779.2 681.7 780 681C780.8 680.3 782.2 677.7 783 677C783.8 676.3 784.5 677.3 785 677C785.5 676.7 785.5 675.3 786 675C786.5 674.7 788 675 788 675L788 674C788 674 788.7 674.3 789 674C789.3 673.7 789.5 672.3 790 672C790.5 671.7 791.3 672.5 792 672C792.7 671.5 793.3 669.5 794 669C794.7 668.5 795.5 669.3 796 669C796.5 668.7 796.5 667.3 797 667C797.5 666.7 798.5 667.3 799 667C799.5 666.7 799.5 665.3 800 665C800.5 664.7 802 665 802 665C802 665 801.5 664.3 802 664C802.5 663.7 804.3 663.5 805 663C805.7 662.5 805.2 661.5 806 661C806.8 660.5 810 660 810 660C810 660 809.5 659.3 810 659C810.5 658.7 812.3 658.5 813 658C813.7 657.5 813.5 656.3 814 656C814.5 655.7 816 656 816 656L816 655C816 655 817.5 655.3 818 655C818.5 654.7 818.5 653.3 819 653C819.5 652.7 821 653 821 653C821 653 820 652.5 821 652C822 651.5 825.8 650.7 827 650C828.2 649.3 827.5 648.3 828 648C828.5 647.7 830 648 830 648L830 647L832 647L832 646L834 646L834 645L836 645L836 644L838 644L838 643L840 643L840 642L842 642L842 641L844 641L844 640L846 640L846 639L848 639L848 638L850 638L850 637L852 637L852 636L854 636L854 635L856 635L856 634L859 634L859 633L861 633L861 632L863 632L863 631L866 631L866 630L868 630L868 629L870 629L870 628L873 628L873 627L875 627L875 626L884 624L884 623L886 623L886 622L889 622L889 621L892 621L892 620L895 620L895 619L898 619L898 618L902 618L902 617L905 617L905 616L908 616L908 615L912 615L912 614L924 612L924 611L929 611L929 610L934 610L934 609L938 609L938 608C938 608 947 607.7 949 607C951 606.3 950 604 950 604C950 604 947.5 603.3 947 603C946.5 602.7 947 602 947 602L941 602L941 601L936 601L936 600L932 600L932 599L927 599L927 598L923 598L923 597L911 595L911 594L908 594L908 593L904 593L904 592L901 592L901 591L898 591L898 590L894 590L894 589L892 589L892 588L889 588L889 587L886 587L886 586L883 586L883 585L874 583L874 582L869 581L869 580L867 580L867 579L865 579L865 578L862 578L862 577L860 577L860 576L858 576L858 575L856 575L856 574L853 574L853 573L851 573L851 572L849 572L849 571L847 571L847 570L845 570L845 569L843 569L843 568L841 568L841 567L839 567L839 566L837 566L837 565L835 565L835 564L833 564C833 564 834 563.5 833 563C832 562.5 828.2 561.7 827 561C825.8 560.3 827.2 559.7 826 559C824.8 558.3 821.2 557.7 820 557C818.8 556.3 820.2 555.7 819 555C817.8 554.3 814.2 553.7 813 553C811.8 552.3 812.5 551.3 812 551C811.5 550.7 810 551 810 551C810 551 810.5 550.3 810 550C809.5 549.7 807.7 549.5 807 549C806.3 548.5 806.8 547.5 806 547C805.2 546.5 802.8 546.5 802 546C801.2 545.5 801.5 544.3 801 544C800.5 543.7 799.5 544.3 799 544C798.5 543.7 798.5 542.3 798 542C797.5 541.7 796.5 542.3 796 542C795.5 541.7 795.5 540.3 795 540C794.5 539.7 793.5 540.3 793 540C792.5 539.7 792.5 538.3 792 538C791.5 537.7 790.7 538.5 790 538C789.3 537.5 788.7 535.5 788 535C787.3 534.5 786.7 535.5 786 535C785.3 534.5 784.7 532.5 784 532C783.3 531.5 782.7 532.5 782 532C781.3 531.5 780.7 529.5 780 529C779.3 528.5 778.7 529.5 778 529C777.3 528.5 776.7 526.5 776 526C775.3 525.5 774.7 526.5 774 526C773.3 525.5 772.7 523.5 772 523C771.3 522.5 771 523.8 770 523C769 522.2 767 518.8 766 518C765 517.2 765 518.8 764 518C763 517.2 761 513.8 760 513C759 512.2 759.5 514.3 758 513C756.5 511.7 752.5 506.3 751 505C749.5 503.7 749 505 749 505L749 504L748 504L748 503L747 503L747 502L746 502L746 501L745 501L745 500L744 500L744 499L743 499L743 498L742 498L742 497L741 497L741 496L740 496L740 495L739 495L739 494L738 494L738 493L737 493L737 492L736 492L736 491L735 491L735 490L734 490L734 489L733 489L733 488L732 488C732 488 733.3 488.3 732 487C730.7 485.7 725.3 481.5 724 480C722.7 478.5 725.2 479.3 724 478C722.8 476.7 718.2 473.3 717 472C715.8 470.7 717 470 717 470L716 470C716 470 716.8 469.8 716 469C715.2 468.2 711.8 466 711 465C710.2 464 711.7 463.8 711 463C710.3 462.2 707.7 460.8 707 460C706.3 459.2 707.5 458.7 707 458C706.5 457.3 704.5 456.7 704 456C703.5 455.3 704.5 454.7 704 454C703.5 453.3 701.5 452.7 701 452C700.5 451.3 701.5 450.7 701 450C700.5 449.3 698.5 448.7 698 448C697.5 447.3 698.3 446.5 698 446C697.7 445.5 696.3 445.5 696 445C695.7 444.5 696.5 443.7 696 443C695.5 442.3 693.5 441.7 693 441C692.5 440.3 693.3 439.5 693 439C692.7 438.5 691.3 438.5 691 438C690.7 437.5 691 436 691 436C691 436 690.3 436.5 690 436C689.7 435.5 689.5 433.7 689 433C688.5 432.3 687.5 432.8 687 432C686.5 431.2 686.7 429 686 428C685.3 427 683.5 426.7 683 426C682.5 425.3 683 424 683 424L682 424C682 424 682.3 422.5 682 422C681.7 421.5 680.5 421.8 680 421C679.5 420.2 679.5 417.8 679 417C678.5 416.2 677.7 417.2 677 416C676.3 414.8 675.7 411.2 675 410C674.3 408.8 673.7 410.2 673 409C672.3 407.8 671.7 404.2 671 403C670.3 401.8 669.3 402.5 669 402C668.7 401.5 669 400 669 400L668 400L668 398L667 398L667 396L666 396L666 394L665 394L665 392L664 392L664 390L663 390L663 388L662 388L662 386L661 386L661 384L660 384L660 382L659 382L659 380L658 380L658 378L657 378L657 375L656 375L656 373L655 373L655 371L654 371L654 369L653 369L653 366L652 366L651 361L650 361L650 359L649 359L649 356L648 356L648 354L647 354L646 348L645 348L645 346L644 346L644 343L643 343L643 340L642 340L642 337L641 337L641 334L640 334L640 330L639 330L639 327L638 327L638 324L637 324L637 320L636 320L636 316L635 316L633 304L632 304L631 294L630 294L630 290L629 290L629 283L626 283Z"/></svg>