<svg xmlns="http://www.w3.org/2000/svg" viewBox="0 0 1254 944" shape-rendering="geometricPrecision"><path fill="currentColor" stroke="currentColor" d="M906 192L906 193L907 193L907 194L908 194L908 195L909 195L909 196L910 196L910 197L911 197L911 198L912 198L912 199L913 199C913 199 911.7 198.7 913 200C914.3 201.3 919.7 205.5 921 207C922.3 208.5 920.5 208.3 921 209C921.5 209.7 923.5 210.3 924 211C924.5 211.7 923.7 212.5 924 213C924.3 213.5 925.5 213.2 926 214C926.5 214.8 926.5 217.2 927 218C927.5 218.8 928.7 218.5 929 219C929.3 219.5 929 221 929 221L930 221L930 223L931 223L931 225L932 225L932 227L933 227L933 229L934 229L934 232L935 232L935 234L936 234L937 241L938 241L938 244L939 244L939 250L940 250L941 269L940 269L940 279L939 279L939 284L938 284L938 288L937 288L935 297L934 297L934 299L933 299L933 302L932 302L932 304C932 304 931.5 303 931 304C930.5 305 929.7 308.8 929 310C928.3 311.2 927.3 310.5 927 311C926.7 311.5 927 313 927 313C927 313 926.3 312.5 926 313C925.7 313.5 925.5 315.3 925 316C924.5 316.7 923.3 316.5 923 317C922.7 317.5 923.8 318 923 319C922.2 320 918.8 322 918 323C917.2 324 918 325 918 325L917 325L917 326C917 326 917.3 324.7 916 326C914.7 327.3 910.5 332.7 909 334C907.5 335.3 907.8 333.3 907 334C906.2 334.7 904.8 337.3 904 338C903.2 338.7 902 338 902 338C902 338 902.5 338.7 902 339C901.5 339.3 899.7 339.5 899 340C898.3 340.5 898.8 341.5 898 342C897.2 342.5 894.8 342.5 894 343C893.2 343.5 893.5 344.7 893 345C892.5 345.3 891 345 891 345L891 346L889 346L889 347L887 347L887 348L884 348L884 349L882 349L882 350L879 350L879 351L876 351L876 352L873 352L873 353L868 353L868 354L862 354L862 355L836 355L836 354L830 354L830 353L825 353L825 352L816 350L816 349L814 349L814 348L811 348L811 347L809 347L809 346L807 346L807 345C807 345 805.5 345.3 805 345C804.5 344.7 804.5 343.3 804 343C803.5 342.7 802 343 802 343C802 343 802.5 342.3 802 342C801.5 341.7 799 341 799 341C799 341 799.7 343.5 800 344C800.3 344.5 801 344 801 344C801 344 800.5 344.5 801 345C801.5 345.5 803.5 346.3 804 347C804.5 347.7 803.5 348.3 804 349C804.5 349.7 806.5 350.3 807 351C807.5 351.7 806.5 352.3 807 353C807.5 353.7 809.2 353.7 810 355C810.8 356.3 811.3 359.8 812 361C812.7 362.2 813.7 361.5 814 362C814.3 362.5 814 364 814 364L815 364L815 366L816 366L816 368L817 368L817 370L818 370L818 372L819 372L819 374L820 374L820 376L821 376L821 379L822 379L822 381L823 381L823 384L824 384L824 387L825 387L825 390L826 390L826 393L827 393L827 397L828 397L828 401L829 401L829 406L830 406L831 421L832 421L832 533L833 533L833 541L834 541L834 546L835 546L835 550L836 550L836 554L837 554L838 561L839 561L839 563L840 563L840 565L841 565L841 568L842 568L842 570L843 570L843 572C843 572 843.5 571 844 572C844.5 573 845.3 576.8 846 578C846.7 579.2 847.7 578.5 848 579C848.3 579.5 848 581 848 581L849 581C849 581 848.7 582.5 849 583C849.3 583.5 850.7 583.5 851 584C851.3 584.5 850.7 585.5 851 586C851.3 586.5 852.7 586.5 853 587C853.3 587.5 852.3 588.2 853 589C853.7 589.8 856.3 591.2 857 592C857.7 592.8 857 594 857 594L858 594C858 594 856.7 593.7 858 595C859.3 596.3 864.7 600.5 866 602C867.3 603.5 866 604 866 604L868 604L868 606C868 606 868.7 605.7 869 606C869.3 606.3 869.5 607.7 870 608C870.5 608.3 870.5 606.7 872 608C873.5 609.3 877.5 614.7 879 616C880.5 617.3 881 616 881 616L881 617L882 617L882 618L883 618L883 619L884 619L884 620L885 620L885 621L886 621L886 622L887 622L887 623L888 623L888 624L889 624L889 625L890 625C890 625 888.7 624.7 890 626C891.3 627.3 896.7 631.5 898 633C899.3 634.5 898 635 898 635L899 635C899 635 898.5 635.5 899 636C899.5 636.5 901.5 637.3 902 638C902.5 638.7 901.5 639.3 902 640C902.5 640.7 904.5 641.3 905 642C905.5 642.7 904.7 643.5 905 644C905.3 644.5 906.5 644.2 907 645C907.5 645.8 908 649 908 649C908 649 908.7 648.5 909 649C909.3 649.5 909.5 651.3 910 652C910.5 652.7 911.7 652.5 912 653C912.3 653.5 912 655 912 655L913 655L913 657L914 657L914 659L915 659L915 661L916 661L916 663L917 663L917 666L918 666L918 668L919 668L919 671L920 671L920 674L921 674L921 677L922 677L922 680L923 680L924 688L925 688L926 705L927 705L927 715L926 715L926 725L925 725L924 736L923 736L923 740L922 740L920 749L919 749L919 751L918 751L918 754L917 754L917 756L916 756L916 758L915 758C915 758 915.3 760.3 915 761C914.7 761.7 913.7 760.8 913 762C912.3 763.2 911.7 766.8 911 768C910.3 769.2 909.3 768.5 909 769C908.7 769.5 909 771 909 771L908 771C908 771 908.5 772.3 908 773C907.5 773.7 905.5 774.3 905 775C904.5 775.7 905.5 776.3 905 777C904.5 777.7 902.5 778.3 902 779C901.5 779.7 902 781 902 781L901 781L901 782L900 782L900 783L899 783L899 784L898 784L898 785L897 785L897 786L896 786L896 787L895 787L895 788L894 788L894 789C894 789 894.3 787.7 893 789C891.7 790.3 887.5 795.7 886 797C884.5 798.3 884.5 796.7 884 797C883.5 797.3 883.5 798.7 883 799C882.5 799.3 881.7 798.5 881 799C880.3 799.5 879.7 801.5 879 802C878.3 802.5 877.5 801.7 877 802C876.5 802.3 877.2 803.3 876 804C874.8 804.7 871.2 805.3 870 806C868.8 806.7 869.5 807.7 869 808C868.5 808.3 867 808 867 808L867 809L865 809L865 810L862 810L862 811L860 811L860 812L854 813L854 814L852 814L852 815L848 815L848 816L845 816L845 817L834 818L834 819L803 819L803 818L797 818L797 817L793 817L793 816L789 816L789 815L786 815L786 814L777 812L777 811L775 811L775 810L773 810L773 809L770 809L770 808L768 808C768 808 769 807.5 768 807C767 806.5 763.2 805.7 762 805C760.8 804.3 761.8 803.5 761 803C760.2 802.5 757 802 757 802C757 802 757.5 801.3 757 801C756.5 800.7 754.8 800.7 754 800C753.2 799.3 752.7 797.5 752 797C751.3 796.5 750 797 750 797C750 797 750.5 796.3 750 796C749.5 795.7 747.8 795.7 747 795C746.2 794.3 745.7 792.5 745 792C744.3 791.5 744.3 793.2 743 792C741.7 790.8 738.3 786.2 737 785C735.7 783.8 735 785 735 785L735 784L734 784L734 783L733 783L733 782L732 782L732 781L731 781L731 780L730 780L730 779L729 779L729 778L728 778L728 777L727 777L727 776L726 776L726 775L725 775L725 774L724 774L724 773L723 773L723 772L722 772L722 771C722 771 722.3 772.3 721 771C719.7 769.7 715.5 764.3 714 763C712.5 761.7 712 763 712 763L712 762C712 762 711.8 762.8 711 762C710.2 761.2 708 757.8 707 757C706 756.2 705.8 757.7 705 757C704.2 756.3 702.8 753.7 702 753C701.2 752.3 700.7 753.5 700 753C699.3 752.5 698.7 750.5 698 750C697.3 749.5 696.5 750.3 696 750C695.5 749.7 695.5 748.3 695 748C694.5 747.7 693 748 693 748C693 748 693.5 747.3 693 747C692.5 746.7 690.7 746.5 690 746C689.3 745.5 689.5 744.3 689 744C688.5 743.7 687 744 687 744L687 743L685 743L685 742L683 742L683 741L681 741L681 740L679 740L679 739L677 739L677 738L675 738L675 737L672 737L672 736L670 736L670 735L667 735L667 734L664 734L664 733L660 733L660 732L657 732L657 731L643 730L643 729L531 729L531 728L524 728L524 727L517 727L517 726L513 726L513 725L508 725L508 724L505 724L505 723L501 723L501 722L492 720L492 719L490 719L490 718L488 718L488 717L485 717L485 716L483 716L483 715L481 715L481 714L479 714L479 713L477 713L477 712L475 712L475 711L473 711L473 710C473 710 471.5 710.3 471 710C470.5 709.7 470.5 708.3 470 708C469.5 707.7 468 708 468 708C468 708 468.5 707.3 468 707C467.5 706.7 465 706 465 706L465 709L466 709L466 711L467 711L467 713L468 713L468 715L469 715L469 717L470 717L470 719L471 719L471 721L472 721L472 724L473 724L473 727L474 727L474 731L475 731L475 735L476 735L476 740L477 740L477 767L476 767L476 772L475 772L474 780L473 780L473 783L472 783L472 786L471 786L471 788L470 788L470 790L469 790C469 790 468.5 794 468 795C467.5 796 466.3 795.5 466 796C465.7 796.5 466 798 466 798L465 798C465 798 464.5 801.2 464 802C463.5 802.8 462.3 802.5 462 803C461.7 803.5 462.3 804.5 462 805C461.7 805.5 460.3 805.5 460 806C459.7 806.5 460.7 807.2 460 808C459.3 808.8 456.7 810.2 456 811C455.3 811.8 456 813 456 813L455 813L455 814C455 814 455.3 812.7 454 814C452.7 815.3 448.5 820.7 447 822C445.5 823.3 445.8 821.3 445 822C444.2 822.7 442.8 825.3 442 826C441.2 826.7 440.5 825.7 440 826C439.5 826.3 439.5 827.7 439 828C438.5 828.3 437.5 827.7 437 828C436.5 828.3 437.2 829.3 436 830C434.8 830.7 431 831.5 430 832C429 832.5 430.5 832.7 430 833C429.5 833.3 427.5 833.7 427 834C426.5 834.3 427 835 427 835L424 835L424 836L422 836L422 837L419 837L419 838L416 838L416 839L413 839L413 840L404 841L404 842L395 842L395 843L374 842L374 841L366 840L366 839L357 837L357 836L355 836L355 835L353 835L353 834L351 834C351 834 352 833.5 351 833C350 832.5 346.2 831.7 345 831C343.8 830.3 344.5 829.3 344 829C343.5 828.7 342 829 342 829C342 829 342.5 828.3 342 828C341.5 827.7 339.7 827.5 339 827C338.3 826.5 338.5 825.3 338 825C337.5 824.7 337 825.8 336 825C335 824.2 333 820.8 332 820C331 819.2 330 820 330 820C330 820 330.7 819.7 330 819C329.3 818.3 326.7 816.8 326 816C325.3 815.2 327 815.2 326 814C325 812.8 321 810.2 320 809C319 807.8 320 807 320 807L319 807C319 807 319.3 806.3 319 806C318.7 805.7 317.3 805.5 317 805C316.7 804.5 317.3 803.5 317 803C316.7 802.5 315.3 802.5 315 802C314.7 801.5 315 800 315 800L314 800C314 800 314.3 798.5 314 798C313.7 797.5 312.3 797.5 312 797C311.7 796.5 312 795 312 795L311 795L311 793L310 793L310 791L309 791L309 789L308 789L308 786L307 786L307 784L306 784L306 781L305 781L305 778L304 778L304 774L303 774L303 769L302 769L302 762L301 762L301 744L302 744L302 737L303 737L303 733L304 733L304 729L305 729L307 720L308 720L308 718L309 718L309 716L310 716L310 714C310 714 310.5 715 311 714C311.5 713 312.3 709.2 313 708C313.7 706.8 314.7 707.5 315 707C315.3 706.5 314.7 705.5 315 705C315.3 704.5 316.7 704.5 317 704C317.3 703.5 316.5 702.7 317 702C317.5 701.3 319.5 700.7 320 700C320.5 699.3 319.5 698.7 320 698C320.5 697.3 322.5 696.7 323 696C323.5 695.3 323 694 323 694C323 694 323 695 324 694C325 693 327.8 689 329 688C330.2 687 330 688.8 331 688C332 687.2 334 683.8 335 683C336 682.2 336.3 683.5 337 683C337.7 682.5 338.3 680.5 339 680C339.7 679.5 341 680 341 680C341 680 340.5 679.3 341 679C341.5 678.7 343.3 678.5 344 678C344.7 677.5 344.5 676.3 345 676C345.5 675.7 347 676 347 676L347 675L349 675L349 674L351 674L351 673L353 673L353 672L356 672L356 671L358 671L358 670L367 668L367 667L377 666L377 665L402 665L402 666L408 666L408 667L412 667L412 668L419 669L419 670L424 671L424 672L426 672L426 673L428 673L428 674C428 674 428.7 674.3 429 674C429.3 673.7 430 672 430 672C430 672 427.5 670.7 427 670C426.5 669.3 427 668 427 668C427 668 426.3 668.5 426 668C425.7 667.5 425.5 665.7 425 665C424.5 664.3 423.5 664.8 423 664C422.5 663.2 422.5 660.8 422 660C421.5 659.2 420.3 659.5 420 659C419.7 658.5 420 657 420 657L419 657L419 655L418 655L418 653L417 653L417 651L416 651L416 649L415 649L415 646L414 646L414 644L413 644L413 642L412 642L412 639L411 639L410 634L409 634L409 631L408 631L408 627L407 627L406 619L405 619L405 615L404 615L403 602L402 602L402 499L401 499L401 490L400 490L399 480L398 480L398 476L397 476L397 473L396 473L396 471L395 471L394 465L393 465L392 460L391 460C391 460 390.5 456.8 390 456C389.5 455.2 388.3 455.5 388 455C387.7 454.5 388 453 388 453C388 453 387.5 454 387 453C386.5 452 385.7 448.2 385 447C384.3 445.8 383.3 446.5 383 446C382.7 445.5 383.3 444.5 383 444C382.7 443.5 381.3 443.5 381 443C380.7 442.5 381.5 441.7 381 441C380.5 440.3 378.5 439.7 378 439C377.5 438.3 378.7 437.8 378 437C377.3 436.2 374.7 434.8 374 434C373.3 433.2 374 432 374 432L373 432L373 431L372 431L372 430L371 430L371 429L370 429L370 428L369 428L369 427L368 427L368 426C368 426 368.3 427.3 367 426C365.7 424.7 361.5 419.3 360 418C358.5 416.7 359.5 419.3 358 418C356.5 416.7 352.5 411.3 351 410C349.5 408.7 349 410 349 410L349 409L348 409L348 408L347 408L347 407L346 407L346 406L345 406L345 405L344 405L344 404L343 404L343 403L342 403L342 402L341 402L341 401L340 401L340 400L339 400L339 399L338 399C338 399 339.3 399.3 338 398C336.7 396.7 331.3 392.5 330 391C328.7 389.5 330.7 389.8 330 389C329.3 388.2 326.7 386.8 326 386C325.3 385.2 326.3 384.5 326 384C325.7 383.5 324.3 383.5 324 383C323.7 382.5 324 381 324 381C324 381 323.3 381.5 323 381C322.7 380.5 322.5 378.7 322 378C321.5 377.3 320.7 378.2 320 377C319.3 375.8 318.7 372.2 318 371C317.3 369.8 316.3 370.5 316 370C315.7 369.5 316 368 316 368L315 368L315 366L314 366L314 364L313 364L313 362L312 362L312 359L311 359L311 357L310 357L310 354L309 354L309 351L308 351L308 348L307 348L306 340L305 340L304 326L303 326L303 312L304 312L304 303L305 303L305 297L306 297L307 289L308 289L309 283L310 283L310 281L311 281L311 278L312 278L312 276L313 276L313 273C313 273 313.5 274 314 273C314.5 272 315.3 268.2 316 267C316.7 265.8 317.5 266.8 318 266C318.5 265.2 318.5 262.8 319 262C319.5 261.2 320.7 261.5 321 261C321.3 260.5 321 259 321 259L322 259C322 259 321.5 257.7 322 257C322.5 256.3 324.5 255.7 325 255C325.5 254.3 324.5 253.7 325 253C325.5 252.3 327.5 251.7 328 251C328.5 250.3 327.3 249.8 328 249C328.7 248.2 331.3 246.8 332 246C332.7 245.2 332 244 332 244C332 244 331.8 245.2 333 244C334.2 242.8 337.7 238.2 339 237C340.3 235.8 340 237.8 341 237C342 236.2 344 232.8 345 232C346 231.2 346.3 232.5 347 232C347.7 231.5 348.3 229.5 349 229C349.7 228.5 351 229 351 229C351 229 350.5 228.3 351 228C351.5 227.7 353.3 227.5 354 227C354.7 226.5 354.2 225.5 355 225C355.8 224.5 358.2 224.5 359 224C359.8 223.5 359.5 222.3 360 222C360.5 221.7 362 222 362 222L362 221L364 221L364 220L366 220L366 219L368 219L368 218L370 218L370 217L372 217L372 216L375 216L375 215L377 215L377 214L380 214L380 213L383 213L383 212L386 212L386 211L390 211L390 210L394 210L394 209L408 208L408 207L429 207L429 208L437 208L437 209L442 209L442 210L447 210L447 211L450 211L450 212L453 212L453 213L457 213L457 214L462 215L462 216L464 216L464 217L466 217L466 218L469 218L469 219C469 219 472.2 219.5 473 220C473.8 220.5 473.2 221.5 474 222C474.8 222.5 477.2 222.5 478 223C478.8 223.5 478.2 224.5 479 225C479.8 225.5 482.2 225.5 483 226C483.8 226.5 483.5 227.7 484 228C484.5 228.3 485.5 227.7 486 228C486.5 228.3 486.5 229.7 487 230C487.5 230.3 488.3 229.5 489 230C489.7 230.5 490.3 232.5 491 233C491.7 233.5 492.2 232.3 493 233C493.8 233.7 495.2 236.3 496 237C496.8 237.7 498 237 498 237L498 238C498 238 497.7 236.7 499 238C500.3 239.3 504.5 244.7 506 246C507.5 247.3 508 246 508 246L508 247L509 247L509 248L510 248L510 249L511 249L511 250L512 250L512 251L513 251L513 252C513 252 512.7 250.7 514 252C515.3 253.3 519.5 258.7 521 260C522.5 261.3 523 260 523 260L523 261C523 261 522.7 259.7 524 261C525.3 262.3 529.5 267.7 531 269C532.5 270.3 532.3 268.5 533 269C533.7 269.5 534.3 271.5 535 272C535.7 272.5 536.5 271.7 537 272C537.5 272.3 537.5 273.7 538 274C538.5 274.3 539.5 273.7 540 274C540.5 274.3 540.5 275.7 541 276C541.5 276.3 543 276 543 276C543 276 542.5 276.7 543 277C543.5 277.3 545.3 277.5 546 278C546.7 278.5 546.2 279.5 547 280C547.8 280.5 550.2 280.5 551 281C551.8 281.5 551.5 282.7 552 283C552.5 283.3 554 283 554 283L554 284L556 284L556 285L558 285L558 286L561 286L561 287L563 287L563 288L565 288L565 289L574 291L574 292L578 292L578 293L582 293L582 294L588 294L588 295L596 295L596 296L713 296L713 297L721 297L721 298L726 298L726 299L738 301L738 302L747 304L747 305L749 305L749 306L752 306L752 307L754 307L754 308L756 308L756 309L758 309L758 310L760 310C760 310 759.5 310.7 760 311C760.5 311.3 763 312 763 312L763 311L764 311L764 295L763 295L763 292L762 292L762 288L761 288L761 284L760 284L760 279L759 279L759 272L758 272L758 258L759 258L760 244L761 244L761 240L762 240L764 231L765 231L765 229L766 229L766 227L767 227C767 227 766.7 224.7 767 224C767.3 223.3 768.7 223.5 769 223C769.3 222.5 769 221 769 221C769 221 769.5 222 770 221C770.5 220 771.5 216 772 215C772.5 214 772.7 215.5 773 215C773.3 214.5 773.3 212.8 774 212C774.7 211.2 776.5 210.7 777 210C777.5 209.3 776.3 208.8 777 208C777.7 207.2 780.3 205.8 781 205C781.7 204.2 781 203 781 203C781 203 780.7 204.3 782 203C783.3 201.7 787.5 196.3 789 195C790.5 193.7 790.2 195.7 791 195C791.8 194.3 793.2 191.7 794 191C794.8 190.3 796 191 796 191L796 190C796 190 796.7 190.3 797 190C797.3 189.7 797.5 188.3 798 188C798.5 187.7 799.5 188.3 800 188C800.5 187.7 800.5 186.3 801 186C801.5 185.7 803 186 803 186L803 185L805 185L805 184L807 184L807 183L809 183L809 182L811 182L811 181L813 181L813 180L815 180L815 179L817 179L817 178L824 177L824 176L831 175L831 174L837 174L837 173L863 173L863 174L868 174L868 175L876 176L876 177L882 178L882 179L884 179L884 180L886 180L886 181C886 181 888.3 180.7 889 181C889.7 181.3 888.8 182.3 890 183C891.2 183.7 894.8 184.3 896 185C897.2 185.7 896.5 186.7 897 187C897.5 187.3 898.5 186.7 899 187C899.5 187.3 899.5 188.7 900 189C900.5 189.3 901.3 188.5 902 189C902.7 189.5 903.3 191.5 904 192C904.7 192.5 906 192 906 192ZM840 199L840 200L835 200L835 201L831 201L831 202L825 203L825 204L823 204C823 204 824 204.5 823 205C822 205.5 818.2 206.3 817 207C815.8 207.7 816.8 208.5 816 209C815.2 209.5 812 210 812 210L812 211C812 211 811.5 210.5 811 211C810.5 211.5 809.7 213.5 809 214C808.3 214.5 807 214 807 214C807 214 808.2 213.8 807 215C805.8 216.2 801.2 219.7 800 221C798.8 222.3 800.7 222.2 800 223C799.3 223.8 796.8 224.8 796 226C795.2 227.2 795.5 229.2 795 230C794.5 230.8 793.3 230.5 793 231C792.7 231.5 793 233 793 233L792 233L792 235L791 235L791 237L790 237L790 239L789 239L789 242L788 242L788 245L787 245L787 248L786 248L785 262L784 262L784 266L785 266L785 276L786 276L786 280L787 280L788 287L789 287L790 292L791 292C791 292 790.7 293.5 791 294C791.3 294.5 792.5 294.2 793 295C793.5 295.8 794 299 794 299C794 299 794.7 298.5 795 299C795.3 299.5 795.3 301.2 796 302C796.7 302.8 798.5 303.3 799 304C799.5 304.7 799 306 799 306L800 306L800 307C800 307 799.7 305.7 801 307C802.3 308.3 806.5 313.7 808 315C809.5 316.3 809.3 314.5 810 315C810.7 315.5 811.3 317.5 812 318C812.7 318.5 813.5 317.7 814 318C814.5 318.3 814.5 319.7 815 320C815.5 320.3 817 320 817 320L817 321L819 321L819 322L821 322L821 323L823 323L823 324L825 324L825 325L828 325L828 326L831 326L831 327L835 327L835 328L840 328L840 329L858 329L858 328L864 328L864 327L867 327L867 326L876 324L876 323L878 323C878 323 877 322.5 878 322C879 321.5 883 320.5 884 320C885 319.5 883.5 319.3 884 319C884.5 318.7 886.2 318.7 887 318C887.8 317.3 888.3 315.5 889 315C889.7 314.5 891 315 891 315L891 314L892 314C892 314 890.7 314.3 892 313C893.3 311.7 898.7 307.5 900 306C901.3 304.5 899.5 304.7 900 304C900.5 303.3 902.5 302.7 903 302C903.5 301.3 902.7 300.5 903 300C903.3 299.5 904.7 299.5 905 299C905.3 298.5 905 297 905 297L906 297L906 295L907 295L907 293L908 293L908 291L909 291L909 289L910 289L910 287L911 287L912 280L913 280L913 276L914 276L914 267L915 267L914 253L913 253L913 248L912 248L911 242L910 242L910 240L909 240L909 237C909 237 908.5 238 908 237C907.5 236 906.7 232.2 906 231C905.3 229.8 904.3 230.5 904 230C903.7 229.5 904.3 228.5 904 228C903.7 227.5 902.3 227.5 902 227C901.7 226.5 902.7 225.8 902 225C901.3 224.2 898.7 222.8 898 222C897.3 221.2 898 220 898 220C898 220 897.8 220.8 897 220C896.2 219.2 894 215.8 893 215C892 214.2 891.8 215.7 891 215C890.2 214.3 888.8 211.7 888 211C887.2 210.3 886.5 211.3 886 211C885.5 210.7 885.5 209.3 885 209C884.5 208.7 883.5 209.3 883 209C882.5 208.7 882.5 207.3 882 207C881.5 206.7 880 207 880 207L880 206L878 206L878 205L876 205L876 204L873 204L873 203L870 203L870 202L867 202L867 201L857 200L857 199L840 199ZM351 262C350 263.2 351.7 263.2 351 264C350.3 264.8 347.7 266.2 347 267C346.3 267.8 347.5 268.3 347 269C346.5 269.7 344.5 270.3 344 271C343.5 271.7 344.3 272.5 344 273C343.7 273.5 342.5 273.2 342 274C341.5 274.8 341.5 277.2 341 278C340.5 278.8 339.5 278 339 279C338.5 280 338 284 338 284L337 284L337 286L336 286L336 289L335 289L335 291L334 291L333 297L332 297L332 301L331 301L329 323L330 323L330 332L331 332L332 341L333 341L335 350L336 350L336 352L337 352L337 354L338 354L338 356L339 356L339 358C339 358 339.5 357 340 358C340.5 359 341.5 363 342 364C342.5 365 342.7 363.5 343 364C343.3 364.5 343.3 366.2 344 367C344.7 367.8 346.5 368.3 347 369C347.5 369.7 346.5 370.3 347 371C347.5 371.7 349.5 372.3 350 373C350.5 373.7 350 375 350 375L351 375L351 376L352 376L352 377L353 377L353 378L354 378L354 379L355 379L355 380L356 380L356 381L357 381L357 382C357 382 356.7 380.7 358 382C359.3 383.3 363.5 388.7 365 390C366.5 391.3 365.5 388.7 367 390C368.5 391.3 372.5 396.7 374 398C375.5 399.3 376 398 376 398L376 399L377 399L377 400L378 400L378 401L379 401L379 402L380 402L380 403L381 403L381 404L382 404L382 405L383 405L383 406L384 406L384 407L385 407C385 407 383.7 406.7 385 408C386.3 409.3 391.7 413.5 393 415C394.3 416.5 392.3 416.2 393 417C393.7 417.8 396.3 419.2 397 420C397.7 420.8 396.5 421.3 397 422C397.5 422.7 399.5 423.3 400 424C400.5 424.7 399.5 425.3 400 426C400.5 426.7 402.5 427.3 403 428C403.5 428.7 403 430 403 430C403 430 403.7 429.5 404 430C404.3 430.5 404.5 432.3 405 433C405.5 433.7 406.3 432.8 407 434C407.7 435.2 408.3 438.8 409 440C409.7 441.2 410.7 440.5 411 441C411.3 441.5 411 443 411 443L412 443L412 445L413 445L413 447L414 447L414 449L415 449L415 451L416 451L416 454L417 454L417 456L418 456L418 459L419 459L419 462L420 462L420 465L421 465L421 468L422 468L422 471L423 471L423 475L424 475L424 480L425 480L425 484L426 484L426 492L427 492L427 502L428 502L428 531L427 531L427 597L428 597L429 612L430 612L430 616L431 616L431 620L432 620L434 629L435 629L435 631L436 631L436 634L437 634L437 636L438 636L438 638L439 638L439 640L440 640L440 642C440 642 440.5 641 441 642C441.5 643 442.3 646.8 443 648C443.7 649.2 444.7 648.5 445 649C445.3 649.5 444.7 650.5 445 651C445.3 651.5 446.7 651.5 447 652C447.3 652.5 446.7 653.5 447 654C447.3 654.5 448.7 654.5 449 655C449.3 655.5 448.3 656.2 449 657C449.7 657.8 452.3 659.2 453 660C453.7 660.8 453 662 453 662L454 662L454 663L455 663L455 664L456 664L456 665L457 665L457 666L458 666L458 667L459 667L459 668L460 668L460 669C460 669 459.7 667.7 461 669C462.3 670.3 466.5 675.7 468 677C469.5 678.3 469.3 676.5 470 677C470.7 677.5 471.3 679.5 472 680C472.7 680.5 473.5 679.7 474 680C474.5 680.3 474.5 681.7 475 682C475.5 682.3 477 682 477 682C477 682 476.5 682.7 477 683C477.5 683.3 479.3 683.5 480 684C480.7 684.5 480.5 685.7 481 686C481.5 686.3 483 686 483 686L483 687L485 687L485 688L487 688L487 689L489 689L489 690L491 690L491 691L493 691L493 692L495 692L495 693L497 693L497 694L500 694L500 695L502 695L502 696L505 696L505 697L508 697L508 698L511 698L511 699L515 699L515 700L519 700L519 701L525 701L525 702L531 702L531 703L644 703L644 704L652 704L652 705L658 705L658 706L662 706L662 707L674 709L674 710L679 711L679 712L682 712L682 713L684 713L684 714L686 714L686 715L688 715L688 716C688 716 690.3 715.7 691 716C691.7 716.3 691.5 717.7 692 718C692.5 718.3 694 718 694 718L694 719L696 719L696 720L698 720C698 720 697 720.5 698 721C699 721.5 703 722.5 704 723C705 723.5 703.5 723.7 704 724C704.5 724.3 706.3 724.5 707 725C707.7 725.5 707.5 726.7 708 727C708.5 727.3 709.3 726.5 710 727C710.7 727.5 711.3 729.5 712 730C712.7 730.5 713.3 729.5 714 730C714.7 730.5 715.3 732.5 716 733C716.7 733.5 717.3 732.5 718 733C718.7 733.5 719.3 735.5 720 736C720.7 736.5 721 735.2 722 736C723 736.8 725 740.2 726 741C727 741.8 728 741 728 741L728 742L729 742L729 743L730 743L730 744L731 744L731 745L732 745L732 746L733 746L733 747L734 747L734 748C734 748 733.7 746.7 735 748C736.3 749.3 740.5 754.7 742 756C743.5 757.3 744 756 744 756L744 757L745 757L745 758L746 758L746 759L747 759L747 760L748 760L748 761L749 761L749 762L750 762L750 763C750 763 749.7 761.7 751 763C752.3 764.3 756.5 769.7 758 771C759.5 772.3 759.5 770.7 760 771C760.5 771.3 760.5 772.7 761 773C761.5 773.3 762.3 772.5 763 773C763.7 773.5 764.3 775.5 765 776C765.7 776.5 766.5 775.7 767 776C767.5 776.3 767.5 777.7 768 778C768.5 778.3 770 778 770 778C770 778 769.5 778.7 770 779C770.5 779.3 772.3 779.5 773 780C773.7 780.5 773.5 781.7 774 782C774.5 782.3 776 782 776 782L776 783L778 783L778 784L780 784L780 785L782 785L782 786L784 786L784 787L787 787L787 788L790 788L790 789L793 789L793 790L797 790L797 791L801 791L801 792L807 792L807 793L830 793L830 792L841 791L841 790L844 790L844 789L847 789L847 788L850 788L850 787L852 787L852 786C852 786 856 785.5 857 785C858 784.5 856.8 783.7 858 783C859.2 782.3 863 781.5 864 781C865 780.5 863.5 780.3 864 780C864.5 779.7 866 779.8 867 779C868 778.2 869.2 775.7 870 775C870.8 774.3 872 775 872 775L872 774L873 774L873 773L874 773C874 773 872.7 773.3 874 772C875.3 770.7 880.7 766.5 882 765C883.3 763.5 881.5 763.7 882 763C882.5 762.3 884.5 761.7 885 761C885.5 760.3 885 759 885 759C885 759 885.7 759.5 886 759C886.3 758.5 886.5 756.7 887 756C887.5 755.3 888.7 755.5 889 755C889.3 754.5 889 753 889 753L890 753C890 753 889.7 751.5 890 751C890.3 750.5 891.7 750.7 892 750C892.3 749.3 892 747 892 747L893 747L893 745L894 745L894 743L895 743L895 741L896 741L896 738L897 738L897 735L898 735L898 731L899 731L899 727L900 727L900 720L901 720L901 700L900 700L900 693L899 693L899 689L898 689L898 686L897 686L896 679L895 679L895 677L894 677L894 675L893 675L893 672C893 672 892.5 673 892 672C891.5 671 890.7 667.2 890 666C889.3 664.8 888.5 665.8 888 665C887.5 664.2 887 661 887 661C887 661 886.3 661.5 886 661C885.7 660.5 885.5 658.7 885 658C884.5 657.3 883.3 657.5 883 657C882.7 656.5 883.5 655.7 883 655C882.5 654.3 880.5 653.7 880 653C879.5 652.3 880 651 880 651L879 651L879 650L878 650L878 649L877 649L877 648L876 648L876 647L875 647L875 646L874 646L874 645L873 645L873 644L872 644L872 643C872 643 872.3 644.3 871 643C869.7 641.7 865.5 636.3 864 635C862.5 633.7 862 635 862 635L862 634L861 634L861 633L860 633L860 632L859 632L859 631L858 631L858 630L857 630L857 629L856 629L856 628L855 628L855 627L854 627L854 626L853 626L853 625L852 625L852 624L851 624L851 623L850 623L850 622L849 622L849 621L848 621L848 620L847 620L847 619L846 619C846 619 847.3 619.3 846 618C844.7 616.7 839.3 612.5 838 611C836.7 609.5 838.5 609.7 838 609C837.5 608.3 835.5 607.7 835 607C834.5 606.3 835.5 605.7 835 605C834.5 604.3 832.5 603.7 832 603C831.5 602.3 832.3 601.5 832 601C831.7 600.5 830.3 600.5 830 600C829.7 599.5 830 598 830 598C830 598 829.3 598.5 829 598C828.7 597.5 828.5 595.7 828 595C827.5 594.3 826.7 595.2 826 594C825.3 592.8 824.7 589.2 824 588C823.3 586.8 822.3 587.5 822 587C821.7 586.5 822 585 822 585L821 585L821 583L820 583L820 581L819 581L819 578L818 578L818 576L817 576L817 573L816 573L816 571L815 571L815 568L814 568L814 565L813 565L813 562L812 562L812 558L811 558L811 554L810 554L810 550L809 550L808 536L807 536L807 425L806 425L806 416L805 416L804 405L803 405L803 401L802 401L802 398L801 398L799 389L798 389L798 387L797 387L797 385L796 385L796 383L795 383L795 381L794 381L794 379C794 379 793.5 380 793 379C792.5 378 791.7 374.2 791 373C790.3 371.8 789.3 372.5 789 372C788.7 371.5 789.3 370.5 789 370C788.7 369.5 787.3 369.5 787 369C786.7 368.5 787.3 367.5 787 367C786.7 366.5 785.3 366.5 785 366C784.7 365.5 785.7 364.8 785 364C784.3 363.2 781.7 361.8 781 361C780.3 360.2 781 359 781 359L780 359L780 358L779 358L779 357L778 357L778 356L777 356L777 355C777 355 777.3 356.3 776 355C774.7 353.7 770.5 348.3 769 347C767.5 345.7 767 347 767 347L767 346C767 346 766.5 346.5 766 346C765.5 345.5 764.7 343.5 764 343C763.3 342.5 762.7 343.5 762 343C761.3 342.5 761 340.7 760 340C759 339.3 756.8 339.5 756 339C755.2 338.5 755.8 337.5 755 337C754.2 336.5 751.8 336.5 751 336C750.2 335.5 750.5 334.3 750 334C749.5 333.7 748 334 748 334L748 333L746 333L746 332L744 332L744 331L741 331L741 330L739 330L739 329L737 329L737 328L734 328L734 327L731 327L731 326L728 326L728 325L719 324L719 323L713 323L713 322L595 322L595 321L585 321L585 320L574 319L574 318L570 318L570 317L567 317L567 316L564 316L564 315L555 313L555 312L553 312L553 311L551 311L551 310L548 310L548 309L546 309C546 309 547 308.5 546 308C545 307.5 541.2 306.7 540 306C538.8 305.3 539.8 304.5 539 304C538.2 303.5 535.8 303.5 535 303C534.2 302.5 534.8 301.5 534 301C533.2 300.5 530.8 300.5 530 300C529.2 299.5 529.5 298.3 529 298C528.5 297.7 527.5 298.3 527 298C526.5 297.7 526.5 296.3 526 296C525.5 295.7 524.5 296.3 524 296C523.5 295.7 523.5 294.3 523 294C522.5 293.7 521.8 294.7 521 294C520.2 293.3 518.8 290.7 518 290C517.2 289.3 516.8 290.7 516 290C515.2 289.3 513.8 286.7 513 286C512.2 285.3 511 286 511 286L511 285L510 285L510 284L509 284L509 283L508 283L508 282L507 282L507 281C507 281 507.3 282.3 506 281C504.7 279.7 500.5 274.3 499 273C497.5 271.7 497 273 497 273L497 272L496 272L496 271L495 271L495 270L494 270L494 269L493 269L493 268C493 268 493.3 269.3 492 268C490.7 266.7 486.5 261.3 485 260C483.5 258.7 483 260 483 260L483 259C483 259 482.8 259.8 482 259C481.2 258.2 479 254.8 478 254C477 253.2 476.7 254.5 476 254C475.3 253.5 474.7 251.5 474 251C473.3 250.5 472.5 251.3 472 251C471.5 250.7 471.5 249.3 471 249C470.5 248.7 469.5 249.3 469 249C468.5 248.7 468.5 247.3 468 247C467.5 246.7 466.5 247.3 466 247C465.5 246.7 465.5 245.3 465 245C464.5 244.7 463 245 463 245L463 244L461 244L461 243L459 243L459 242L456 242L456 241L454 241L454 240L452 240L452 239L449 239L449 238L446 238L446 237L443 237L443 236L439 236L439 235L424 234L424 233L412 233L412 234L403 234L403 235L397 235L397 236L394 236L394 237L390 237L390 238L387 238L387 239L385 239L385 240L383 240L383 241L380 241L380 242L378 242C378 242 379 242.5 378 243C377 243.5 373.2 244.3 372 245C370.8 245.7 371.5 246.7 371 247C370.5 247.3 369.5 246.7 369 247C368.5 247.3 368.5 248.7 368 249C367.5 249.3 366.5 248.7 366 249C365.5 249.3 365.5 250.7 365 251C364.5 251.3 364 250.2 363 251C362 251.8 360 255.2 359 256C358 256.8 357 256 357 256C357 256 358 256 357 257C356 258 352 260.8 351 262ZM387 690L387 691L374 692L374 693L365 695L365 696L363 696C363 696 364 696.5 363 697C362 697.5 358 698.5 357 699C356 699.5 357.5 699.7 357 700C356.5 700.3 354.8 700.3 354 701C353.2 701.7 352.7 703.5 352 704C351.3 704.5 350 704 350 704L350 705L349 705L349 706L348 706C348 706 349.3 705.7 348 707C346.7 708.3 341.3 712.5 340 714C338.7 715.5 340.5 715.3 340 716C339.5 716.7 337.5 717.3 337 718C336.5 718.7 337 720 337 720L336 720L336 722L335 722L335 724L334 724L334 726L333 726L333 728L332 728L332 730L331 730L331 733L330 733L330 736L329 736L329 739L328 739L328 745L327 745L327 763L328 763L328 768L329 768L329 771L330 771L330 774L331 774L331 777L332 777C332 777 332.5 781 333 782C333.5 783 334.7 782.5 335 783C335.3 783.5 335 785 335 785L336 785C336 785 335.7 786.5 336 787C336.3 787.5 337.7 787.5 338 788C338.3 788.5 337.7 789.5 338 790C338.3 790.5 339.7 790.5 340 791C340.3 791.5 340 793 340 793L341 793L341 794L342 794L342 795L343 795L343 796C343 796 342.7 794.7 344 796C345.3 797.3 349.5 802.7 351 804C352.5 805.3 353 804 353 804C353 804 352.5 804.7 353 805C353.5 805.3 355.3 805.5 356 806C356.7 806.5 356.2 807.5 357 808C357.8 808.5 360.2 808.5 361 809C361.8 809.5 361.3 810.7 362 811C362.7 811.3 365 811 365 811L365 812L370 813L370 814L373 814L373 815L377 815L377 816L385 816L385 817L396 817L396 816L406 815L406 814L409 814L409 813L412 813L412 812L415 812C415 812 414 811.5 415 811C416 810.5 419.8 809.7 421 809C422.2 808.3 421.5 807.3 422 807C422.5 806.7 423.5 807.3 424 807C424.5 806.7 424.5 805.3 425 805C425.5 804.7 426.2 805.7 427 805C427.8 804.3 429.2 801.7 430 801C430.8 800.3 432 801 432 801C432 801 431.5 800.5 432 800C432.5 799.5 434.5 798.7 435 798C435.5 797.3 434.2 797 435 796C435.8 795 439.2 793 440 792C440.8 791 440 790 440 790C440 790 440.7 790.5 441 790C441.3 789.5 441.5 787.7 442 787C442.5 786.3 443.7 786.5 444 786C444.3 785.5 444 784 444 784L445 784L445 782L446 782L446 780L447 780L447 778L448 778L449 772L450 772L451 762L452 762L452 746L451 746L451 740L450 740L450 736L449 736L448 730L447 730L447 728L446 728L446 726C446 726 445.5 727 445 726C444.5 725 443.7 721.2 443 720C442.3 718.8 441.3 719.5 441 719C440.7 718.5 441.3 717.5 441 717C440.7 716.5 439.3 716.5 439 716C438.7 715.5 439 714 439 714L438 714L438 713L437 713L437 712L436 712L436 711C436 711 436.3 712.3 435 711C433.7 709.7 429.5 704.3 428 703C426.5 701.7 426 703 426 703C426 703 426.5 702.3 426 702C425.5 701.7 423.7 701.5 423 701C422.3 700.5 422.5 699.3 422 699C421.5 698.7 420 699 420 699L420 698L418 698L418 697L416 697L416 696L414 696L414 695L412 695L412 694L409 694L409 693L405 693L405 692L401 692L401 691L391 691L391 690L387 690Z"/></svg>