<svg xmlns="http://www.w3.org/2000/svg" viewBox="0 0 1254 1254" shape-rendering="geometricPrecision"><path fill="#4c4d4d" d="M936 381L935 381L934 390L933 390L932 396L931 396L931 398L930 398L930 401C930 401 929.5 400 929 401C928.5 402 927.7 405.8 927 407C926.3 408.2 925.5 407.2 925 408C924.5 408.8 924.5 411.2 924 412C923.5 412.8 922.3 412.5 922 413C921.7 413.5 922 415 922 415L921 415C921 415 921.3 415.7 921 416C920.7 416.3 919.3 416.5 919 417C918.7 417.5 919.5 418.3 919 419C918.5 419.7 916.5 420.3 916 421C915.5 421.7 916 423 916 423C916 423 916.3 421.7 915 423C913.7 424.3 909.5 429.7 908 431C906.5 432.3 906.8 430.3 906 431C905.2 431.7 903.8 434.3 903 435C902.2 435.7 901.5 434.7 901 435C900.5 435.3 900.5 436.7 900 437C899.5 437.3 898 437 898 437C898 437 898.5 437.7 898 438C897.5 438.3 895.7 438.5 895 439C894.3 439.5 894.5 440.7 894 441C893.5 441.3 892 441 892 441L892 442L890 442L890 443L888 443L888 444L886 444L886 445L883 445L883 446L881 446L881 447L879 447L879 448L875 448L875 449L871 449L871 450L867 450L867 451L859 451L859 452L396 452L396 451L388 451L388 450L379 449L379 448L373 447L373 446L371 446L371 445L369 445L369 444L367 444L367 443L365 443C365 443 366 442.5 365 442C364 441.5 360.2 440.7 359 440C357.8 439.3 358.5 438.3 358 438C357.5 437.7 356.5 438.3 356 438C355.5 437.7 355.5 436.3 355 436C354.5 435.7 353.8 436.7 353 436C352.2 435.3 350.8 432.7 350 432C349.2 431.3 348 432 348 432L348 431L347 431L347 430L346 430C346 430 347.3 430.3 346 429C344.7 427.7 339.3 423.5 338 422C336.7 420.5 338.5 420.7 338 420C337.5 419.3 335.5 418.7 335 418C334.5 417.3 335.3 416.5 335 416C334.7 415.5 333.3 415.5 333 415C332.7 414.5 333 413 333 413C333 413 332.3 413.5 332 413C331.7 412.5 331.5 410.7 331 410C330.5 409.3 329.3 409.5 329 409C328.7 408.5 329 407 329 407L328 407L328 405L327 405L327 403L326 403L326 401L325 401L325 399L324 399L323 393L322 393L322 391L321 391L321 387L320 387L320 383L319 383L319 377L318 377L318 354L319 354L320 344L321 344L321 341L322 341L322 337L323 337L323 335L324 335L324 333L325 333L325 330L326 330L326 328C326 328 326.5 329 327 328C327.5 327 328.5 323 329 322C329.5 321 329.7 322.5 330 322C330.3 321.5 330.5 319.7 331 319C331.5 318.3 332.7 318.5 333 318C333.3 317.5 333 316 333 316L334 316C334 316 333.7 315.3 334 315C334.3 314.7 335.7 314.5 336 314C336.3 313.5 335.3 312.8 336 312C336.7 311.2 339.3 309.8 340 309C340.7 308.2 340 307 340 307C340 307 340.2 307.8 341 307C341.8 306.2 344 302.8 345 302C346 301.2 346 302.8 347 302C348 301.2 350 297.8 351 297C352 296.2 352.3 297.5 353 297C353.7 296.5 354 294.7 355 294C356 293.3 358.2 293.5 359 293C359.8 292.5 359.5 291.3 360 291C360.5 290.7 362 291 362 291L362 290L364 290L364 289L366 289L366 288L368 288L368 287L370 287L370 286L373 286L373 285L375 285L375 284L378 284L378 283L381 283L381 282L385 282L385 281L392 281L392 280L864 280L864 281L874 282L874 283L883 285L883 286L885 286L885 287L887 287L887 288L889 288C889 288 888 288.5 889 289C890 289.5 893.8 290.3 895 291C896.2 291.7 895.5 292.7 896 293C896.5 293.3 897.5 292.7 898 293C898.5 293.3 898.5 294.7 899 295C899.5 295.3 900.3 294.5 901 295C901.7 295.5 902.3 297.5 903 298C903.7 298.5 905 298 905 298L905 299L906 299L906 300L907 300L907 301L908 301L908 302L909 302L909 303L910 303C910 303 908.7 302.7 910 304C911.3 305.3 916.7 309.5 918 311C919.3 312.5 917.5 312.3 918 313C918.5 313.7 920.5 314.3 921 315C921.5 315.7 920.7 316.5 921 317C921.3 317.5 922.7 317.5 923 318C923.3 318.5 922.7 319.5 923 320C923.3 320.5 924.5 320.2 925 321C925.5 321.8 926 325 926 325C926 325 926.7 324.5 927 325C927.3 325.5 927.7 327.5 928 328C928.3 328.5 929 328 929 328L929 331L930 331L930 333L931 333L931 336L932 336L932 338L933 338L934 345L935 345L936 356L937 356L937 375L936 375L936 381ZM343 356L343 376L344 376L344 381L345 381L345 384L346 384L346 386L347 386L347 389L348 389L348 391L349 391L349 393C349 393 349.5 392 350 393C350.5 394 351.3 397.8 352 399C352.7 400.2 353.7 399.5 354 400C354.3 400.5 353 400.8 354 402C355 403.2 359 405.8 360 407C361 408.2 360 409 360 409C360 409 360.7 408.7 361 409C361.3 409.3 361.5 410.7 362 411C362.5 411.3 363.2 410.3 364 411C364.8 411.7 366.2 414.3 367 415C367.8 415.7 369 415 369 415C369 415 368.5 415.7 369 416C369.5 416.3 371.3 416.5 372 417C372.7 417.5 372.5 418.7 373 419C373.5 419.3 375 419 375 419L375 420L377 420L377 421L379 421L379 422L382 422L382 423L385 423L385 424L389 424L389 425L394 425L394 426L861 426L861 425L866 425L866 424L875 422L875 421L877 421C877 421 876 420.5 877 420C878 419.5 881.8 418.7 883 418C884.2 417.3 883.5 416.3 884 416C884.5 415.7 885.5 416.3 886 416C886.5 415.7 886.5 414.3 887 414C887.5 413.7 889 414 889 414L889 413L890 413C890 413 888.7 413.3 890 412C891.3 410.7 896.7 406.5 898 405C899.3 403.5 897.5 403.7 898 403C898.5 402.3 900.5 401.7 901 401C901.5 400.3 900.7 399.5 901 399C901.3 398.5 902.7 398.5 903 398C903.3 397.5 903 396 903 396L904 396L904 394L905 394L905 392L906 392L906 390L907 390L907 388L908 388L908 385L909 385L909 382L910 382L910 378L911 378L911 373L912 373L912 358L911 358L910 349L909 349L908 343L907 343L907 341C907 341 906.5 342 906 341C905.5 340 904.5 336 904 335C903.5 334 903.3 335.5 903 335C902.7 334.5 902.5 332.7 902 332C901.5 331.3 900.3 331.5 900 331C899.7 330.5 900.5 329.7 900 329C899.5 328.3 897.5 327.7 897 327C896.5 326.3 897 325 897 325C897 325 896.8 325.8 896 325C895.2 324.2 893 320.8 892 320C891 319.2 890.7 320.5 890 320C889.3 319.5 888.7 317.5 888 317C887.3 316.5 886 317 886 317C886 317 886.5 316.3 886 316C885.5 315.7 883.7 315.5 883 315C882.3 314.5 882.5 313.3 882 313C881.5 312.7 880 313 880 313L880 312L878 312L878 311L876 311L876 310L867 308L867 307L862 307L862 306L392 306L392 307L388 307L388 308L381 309L381 310L379 310L379 311L377 311L377 312L375 312C375 312 376 312.5 375 313C374 313.5 370.3 314.2 369 315C367.7 315.8 367.7 317.5 367 318C366.3 318.5 365 318 365 318L365 319L364 319C364 319 365.3 318.7 364 320C362.7 321.3 357.3 325.5 356 327C354.7 328.5 356.5 328.3 356 329C355.5 329.7 353.7 330 353 331C352.3 332 352.5 334.2 352 335C351.5 335.8 350.3 335.5 350 336C349.7 336.5 350 338 350 338L349 338L349 340L348 340L348 343L347 343L346 348L345 348L344 356L343 356ZM996 521C996.3 521.5 996 523 996 523L997 523L997 525L998 525L998 527L999 527L999 529L1000 529L1000 531L1001 531L1002 537L1003 537L1003 541L1004 541L1004 549L1005 549L1004 564L1003 564L1003 568L1002 568L1001 574L1000 574L1000 576L999 576L999 578C999 578 998.5 577 998 578C997.5 579 996.7 582.8 996 584C995.3 585.2 994.3 584.5 994 585C993.7 585.5 994 587 994 587L993 587L993 588L992 588L992 589L991 589L991 590L990 590L990 591C990 591 990.3 589.7 989 591C987.7 592.3 983.5 597.7 982 599C980.5 600.3 980.5 598.7 980 599C979.5 599.3 979.5 600.7 979 601C978.5 601.3 977 601 977 601L977 602C977 602 975.5 601.7 975 602C974.5 602.3 975 603.5 974 604C973 604.5 969 605 969 605L969 606L967 606L967 607L960 608L960 609L954 609L954 610L941 610L941 609L935 609L935 608L926 606L926 605L924 605C924 605 925 604.5 924 604C923 603.5 919 602.5 918 602C917 601.5 918.5 601.3 918 601C917.5 600.7 916 600.8 915 600C914 599.2 912.8 596.7 912 596C911.2 595.3 910 596 910 596C910 596 910.8 595.8 910 595C909.2 594.2 905.8 592 905 591C904.2 590 905.7 589.8 905 589C904.3 588.2 901.8 587.2 901 586C900.2 584.8 900 582 900 582C900 582 899.3 582.5 899 582C898.7 581.5 898.3 579.5 898 579C897.7 578.5 897 579 897 579L897 576L896 576L896 574L895 574L895 572L894 572L894 569L893 569L893 565L892 565L892 557C892 557 891.3 557.5 891 557C890.7 556.5 972.3 554.5 890 554C807.7 553.5 397 554 397 554L397 555L386 556L386 557L383 557L383 558L380 558L380 559L378 559L378 560C378 560 374 560.5 373 561C372 561.5 372.5 562.7 372 563C371.5 563.3 370.5 562.7 370 563C369.5 563.3 369.5 564.7 369 565C368.5 565.3 367.8 564.3 367 565C366.2 565.7 364.8 568.3 364 569C363.2 569.7 362 569 362 569C362 569 362.7 569.3 362 570C361.3 570.7 358.7 572.2 358 573C357.3 573.8 358.5 574.3 358 575C357.5 575.7 355.5 576.3 355 577C354.5 577.7 355.3 578.5 355 579C354.7 579.5 353.3 579.5 353 580C352.7 580.5 353.3 581.5 353 582C352.7 582.5 351.3 582.5 351 583C350.7 583.5 351 585 351 585L350 585L350 587L349 587L349 589L348 589L348 591L347 591L347 594L346 594L346 597L345 597L345 600L344 600L344 604L343 604L343 625L344 625L344 629L345 629L345 633L346 633L347 639L348 639C348 639 348.5 642.2 349 643C349.5 643.8 350.5 643.2 351 644C351.5 644.8 351.5 647.2 352 648C352.5 648.8 353.7 648.5 354 649C354.3 649.5 353.5 650.3 354 651C354.5 651.7 356.5 652.3 357 653C357.5 653.7 357 655 357 655C357 655 356.8 653.8 358 655C359.2 656.2 362.7 660.8 364 662C365.3 663.2 365.3 661.5 366 662C366.7 662.5 367.3 664.5 368 665C368.7 665.5 369.5 664.7 370 665C370.5 665.3 370.5 666.7 371 667C371.5 667.3 373 667 373 667L373 668L375 668L375 669L377 669L377 670L379 670L379 671L381 671L381 672L384 672L384 673L387 673L387 674L391 674L391 675L851 675L851 676L873 676L873 677L878 677L878 678L885 679L885 680L887 680L887 681L890 681L890 682L892 682C892 682 891 682.5 892 683C893 683.5 896.8 684.3 898 685C899.2 685.7 898.5 686.7 899 687C899.5 687.3 900.5 686.7 901 687C901.5 687.3 901.5 688.7 902 689C902.5 689.3 903.5 688.7 904 689C904.5 689.3 904.5 690.7 905 691C905.5 691.3 906 690.2 907 691C908 691.8 910 695.2 911 696C912 696.8 913 696 913 696C913 696 912.7 696.7 913 697C913.3 697.3 914.7 697.5 915 698C915.3 698.5 915 700 915 700L916 700C916 700 915.2 700.2 916 701C916.8 701.8 920.2 704 921 705C921.8 706 920.5 706.3 921 707C921.5 707.7 923.5 708.3 924 709C924.5 709.7 923.7 710.5 924 711C924.3 711.5 925.7 711.5 926 712C926.3 712.5 926 714 926 714L927 714L927 716L928 716L928 718L929 718L929 720L930 720L930 722L931 722L931 724L932 724L932 727L933 727L933 730L934 730L934 733L935 733L935 737L936 737L936 744L937 744L937 765L936 765L935 775L934 775L932 784L931 784L931 786L930 786L930 788L929 788L929 790C929 790 928.5 789 928 790C927.5 791 926.7 794.8 926 796C925.3 797.2 924.3 796.5 924 797C923.7 797.5 924.3 798.5 924 799C923.7 799.5 922.3 799.5 922 800C921.7 800.5 923 800.8 922 802C921 803.2 917 805.8 916 807C915 808.2 916 809 916 809C916 809 915.7 808.3 915 809C914.3 809.7 912.8 812.3 912 813C911.2 813.7 911 812.2 910 813C909 813.8 907 817.2 906 818C905 818.8 904.5 817.7 904 818C903.5 818.3 903.5 819.7 903 820C902.5 820.3 901.5 819.7 901 820C900.5 820.3 900.5 821.7 900 822C899.5 822.3 898 822 898 822L898 823L896 823L896 824L894 824L894 825L892 825L892 826L890 826L890 827L887 827L887 828L885 828L885 829L878 830L878 831L873 831L873 832L807 832L807 833L789 833L789 832L738 832L738 833L726 833L726 832L714 832L714 833L707 833L707 832L626 832L626 833L622 833L622 832L481 832L481 833L480 833L479 842L478 842L478 846L477 846L477 848L476 848L476 850L475 850L475 853L474 853C474 853 473.5 856.2 473 857C472.5 857.8 471.3 857.5 471 858C470.7 858.5 471.3 859.5 471 860C470.7 860.5 469.3 860.5 469 861C468.7 861.5 469.5 862.3 469 863C468.5 863.7 466.5 864.3 466 865C465.5 865.7 466 867 466 867L465 867L465 868C465 868 465.3 866.7 464 868C462.7 869.3 458.5 874.7 457 876C455.5 877.3 455 876 455 876L455 877C455 877 454.3 876.7 454 877C453.7 877.3 453.5 878.7 453 879C452.5 879.3 451.5 878.7 451 879C450.5 879.3 450.5 880.7 450 881C449.5 881.3 448 881 448 881L448 882C448 882 446.5 881.7 446 882C445.5 882.3 445.7 883.7 445 884C444.3 884.3 442 884 442 884L442 885L440 885L440 886L438 886L438 887L435 887L435 888L432 888L432 889L427 889L427 890L419 890L419 891L402 890L402 889L398 889L398 888L389 886L389 885L387 885C387 885 388 884.5 387 884C386 883.5 382.2 882.7 381 882C379.8 881.3 380.5 880.3 380 880C379.5 879.7 378.5 880.3 378 880C377.5 879.7 377.5 878.3 377 878C376.5 877.7 375.8 878.7 375 878C374.2 877.3 372.8 874.7 372 874C371.2 873.3 370 874 370 874C370 874 371 874 370 873C369 872 365 869.2 364 868C363 866.8 364.5 866.7 364 866C363.5 865.3 361.5 864.7 361 864C360.5 863.3 361.3 862.5 361 862C360.7 861.5 359.3 861.5 359 861C358.7 860.5 359.3 859.5 359 859C358.7 858.5 357.3 858.5 357 858C356.7 857.5 357 856 357 856L356 856L356 854L355 854L355 852L354 852L354 850L353 850L351 841L350 841L349 830L348 830L348 816L349 816L349 810L350 810L350 806L351 806L351 802L352 802L352 800L353 800L354 794L355 794C355 794 354.7 792.5 355 792C355.3 791.5 356.7 791.5 357 791C357.3 790.5 357 789 357 789L358 789C358 789 357.7 787.5 358 787C358.3 786.5 359.7 786.5 360 786C360.3 785.5 359.5 784.7 360 784C360.5 783.3 362.5 782.7 363 782C363.5 781.3 363 780 363 780L364 780L364 779L365 779L365 778C365 778 364.7 779.3 366 778C367.3 776.7 371.5 771.3 373 770C374.5 768.7 374.3 770.5 375 770C375.7 769.5 376.3 767.5 377 767C377.7 766.5 378.5 767.3 379 767C379.5 766.7 379.5 765.3 380 765C380.5 764.7 382 765 382 765L382 764L384 764L384 763L386 763L386 762L388 762L388 761L390 761L390 760L393 760L393 759L396 759L396 758L400 758L400 757L404 757L404 756L425 756L425 757L434 758L434 759L437 759L437 760L439 760L439 761L441 761L441 762C441 762 443.3 761.7 444 762C444.7 762.3 444.5 763.7 445 764C445.5 764.3 447 764 447 764L447 765C447 765 448.5 764.7 449 765C449.5 765.3 449.5 766.7 450 767C450.5 767.3 451.5 766.7 452 767C452.5 767.3 452.5 768.7 453 769C453.5 769.3 454.2 768.3 455 769C455.8 769.7 457.2 772.3 458 773C458.8 773.7 460 773 460 773C460 773 459.5 773.5 460 774C460.5 774.5 462.5 775.3 463 776C463.5 776.7 462.3 777.2 463 778C463.7 778.8 466.3 780.2 467 781C467.7 781.8 467 783 467 783L468 783C468 783 467.7 783.7 468 784C468.3 784.3 469.7 784.5 470 785C470.3 785.5 469.7 786.5 470 787C470.3 787.5 471.7 787.5 472 788C472.3 788.5 472 790 472 790L473 790L473 792L474 792L474 794L475 794L475 796L476 796L476 799L477 799L477 801L478 801L478 805C478 805 478.7 804.7 479 805C479.3 805.3 415.5 806.7 480 807C544.5 807.3 866 807 866 807L866 806L872 806L872 805L876 805L876 804L882 803L882 802C882 802 885.2 801.5 886 801C886.8 800.5 886.5 799.3 887 799C887.5 798.7 888.5 799.3 889 799C889.5 798.7 889.5 797.3 890 797C890.5 796.7 892 797 892 797L892 796L893 796C893 796 891.7 796.3 893 795C894.3 793.7 899.7 789.5 901 788C902.3 786.5 901 786 901 786C901 786 901.7 786.5 902 786C902.3 785.5 902.5 783.7 903 783C903.5 782.3 904.7 782.5 905 782C905.3 781.5 905 780 905 780L906 780L906 778L907 778L907 776L908 776L908 774L909 774L909 771L910 771L910 768L911 768L911 764L912 764L912 745L911 745L911 741L910 741L909 734L908 734L908 732C908 732 907.5 733 907 732C906.5 731 905.5 727 905 726C904.5 725 904.3 726.5 904 726C903.7 725.5 903.5 723.7 903 723C902.5 722.3 901.3 722.5 901 722C900.7 721.5 901 720 901 720C901 720 901.2 721.2 900 720C898.8 718.8 895.3 714.2 894 713C892.7 711.8 892.7 713.5 892 713C891.3 712.5 890.7 710.5 890 710C889.3 709.5 888.5 710.3 888 710C887.5 709.7 887.5 708.3 887 708C886.5 707.7 885 708 885 708L885 707L883 707L883 706L881 706L881 705L879 705L879 704L872 703L872 702L866 702L866 701L392 701L392 700L386 700L386 699L382 699L382 698L378 698L378 697L372 696L372 695L370 695L370 694L368 694L368 693L366 693L366 692L364 692C364 692 365 691.5 364 691C363 690.5 359.2 689.7 358 689C356.8 688.3 357.5 687.3 357 687C356.5 686.7 355 687 355 687L355 686C355 686 354.3 686.3 354 686C353.7 685.7 353.5 684.3 353 684C352.5 683.7 352.2 685 351 684C349.8 683 347.2 679 346 678C344.8 677 344 678 344 678C344 678 344.7 677.7 344 677C343.3 676.3 340.7 674.8 340 674C339.3 673.2 340.7 672.8 340 672C339.3 671.2 336.7 669.8 336 669C335.3 668.2 336.5 667.7 336 667C335.5 666.3 333.5 665.7 333 665C332.5 664.3 333.3 663.5 333 663C332.7 662.5 331.7 663.2 331 662C330.3 660.8 329.7 657.2 329 656C328.3 654.8 327.3 655.5 327 655C326.7 654.5 327 653 327 653L326 653L326 651L325 651L325 648L324 648L324 646L323 646L323 643L322 643L322 640L321 640L321 637L320 637L319 626L318 626L318 603L319 603L319 597L320 597L320 593L321 593L321 589L322 589L323 583L324 583L324 581L325 581L325 579L326 579L326 577L327 577L327 575C327 575 327.5 576 328 575C328.5 574 329.3 570.2 330 569C330.7 567.8 331.7 568.5 332 568C332.3 567.5 331.7 566.5 332 566C332.3 565.5 333.7 565.5 334 565C334.3 564.5 333.3 563.8 334 563C334.7 562.2 337.3 560.8 338 560C338.7 559.2 338 558 338 558L339 558L339 557L340 557L340 556L341 556L341 555C341 555 340.7 556.3 342 555C343.3 553.7 347.5 548.3 349 547C350.5 545.7 350.3 547.5 351 547C351.7 546.5 352.3 544.5 353 544C353.7 543.5 355 544 355 544C355 544 354.5 543.3 355 543C355.5 542.7 357.3 542.5 358 542C358.7 541.5 358.5 540.3 359 540C359.5 539.7 361 540 361 540L361 539L363 539L363 538L365 538L365 537L367 537L367 536L369 536L369 535L371 535L371 534L373 534L373 533L379 532L379 531L389 530L389 529L398 529L398 528C398 528 813.7 528.5 897 528C980.3 527.5 897.7 525.5 898 525C898.3 524.5 899 525 899 525L899 523L900 523C900 523 899.7 521.5 900 521C900.3 520.5 901.7 520.5 902 520C902.3 519.5 902 518 902 518L903 518C903 518 902.3 517.7 903 517C903.7 516.3 906.3 514.8 907 514C907.7 513.2 907 512 907 512C907 512 907.5 512.5 908 512C908.5 511.5 909.3 509.5 910 509C910.7 508.5 911.2 509.7 912 509C912.8 508.3 914.2 505.7 915 505C915.8 504.3 916.5 505.3 917 505C917.5 504.7 917.5 503.3 918 503C918.5 502.7 920 503 920 503L920 502L922 502L922 501L924 501L924 500L926 500L926 499L928 499L928 498L935 497L935 496L940 496L940 495L956 495L956 496L961 496L961 497L965 497L965 498L967 498L967 499L970 499L970 500L972 500C972 500 971 500.5 972 501C973 501.5 977 502.5 978 503C979 503.5 978 504 978 504C978 504 978.7 503.7 979 504C979.3 504.3 979.5 505.7 980 506C980.5 506.3 981.3 505.5 982 506C982.7 506.5 983.3 508.5 984 509C984.7 509.5 986 509 986 509C986 509 985.5 509.5 986 510C986.5 510.5 988.5 511.3 989 512C989.5 512.7 989 514 989 514L990 514C990 514 989.3 514.3 990 515C990.7 515.7 993.3 517.2 994 518C994.7 518.8 993.7 519.5 994 520C994.3 520.5 995.7 520.5 996 521ZM943 520L943 521L939 521L939 522L936 522C936 522 937 522.5 936 523C935 523.5 931.3 524.2 930 525C928.7 525.8 928.7 527.5 928 528C927.3 528.5 926 528 926 528C926 528 926.5 528.5 926 529C925.5 529.5 923.5 530.3 923 531C922.5 531.7 923.3 532.5 923 533C922.7 533.5 921.3 533.5 921 534C920.7 534.5 921 536 921 536C921 536 920.3 535.5 920 536C919.7 536.5 919.3 538.5 919 539C918.7 539.5 918 539 918 539L917 546L916 546L916 560L917 560L917 563L918 563L918 566L919 566C919 566 919.5 569.2 920 570C920.5 570.8 921.7 570.5 922 571C922.3 571.5 922 573 922 573C922 573 922.2 572.2 923 573C923.8 573.8 926 577.2 927 578C928 578.8 928.5 577.7 929 578C929.5 578.3 929.5 579.7 930 580C930.5 580.3 931.5 579.7 932 580C932.5 580.3 932.3 581.7 933 582C933.7 582.3 936 582 936 582L936 583L938 583L938 584L943 584L943 585L953 585L953 584L957 584L957 583L960 583C960 583 959 582.5 960 582C961 581.5 965 580.5 966 580C967 579.5 965.5 579.3 966 579C966.5 578.7 968.5 578.3 969 578C969.5 577.7 968.5 577.5 969 577C969.5 576.5 971.5 575.7 972 575C972.5 574.3 971.5 573.7 972 573C972.5 572.3 974.5 571.7 975 571C975.5 570.3 975 569 975 569C975 569 975.7 569.5 976 569C976.3 568.5 976.7 566.5 977 566C977.3 565.5 978 566 978 566L979 560L980 560L980 546L979 546L979 542L978 542L978 540L977 540C977 540 977.3 537.7 977 537C976.7 536.3 975.3 536.5 975 536C974.7 535.5 975 534 975 534L974 534L974 533C974 533 974.3 534.3 973 533C971.7 531.7 967.5 526.3 966 525C964.5 523.7 964 525 964 525L964 524L962 524L962 523L960 523L960 522L957 522L957 521L953 521L953 520L943 520ZM409 781L409 782L404 782L404 783L401 783L401 784L398 784L398 785C398 785 394.8 785.5 394 786C393.2 786.5 393.5 787.7 393 788C392.5 788.3 391.5 787.7 391 788C390.5 788.3 390.5 789.7 390 790C389.5 790.3 388 790 388 790C388 790 389 790 388 791C387 792 383 794.8 382 796C381 797.2 382.5 797.3 382 798C381.5 798.7 379.5 799.3 379 800C378.5 800.7 379 802 379 802L378 802L378 804L377 804L377 806L376 806L376 809L375 809L375 811L374 811L374 815L373 815L373 832L374 832L374 836L375 836L375 838L376 838L376 841C376 841 376.5 840 377 841C377.5 842 378.5 846 379 847C379.5 848 380 847 380 847C380 847 379.5 847.5 380 848C380.5 848.5 382.5 849.3 383 850C383.5 850.7 383 852 383 852C383 852 383.5 851.5 384 852C384.5 852.5 385.3 854.5 386 855C386.7 855.5 387.2 854.3 388 855C388.8 855.7 390.2 858.3 391 859C391.8 859.7 393 859 393 859L393 860L395 860L395 861L397 861L397 862L399 862L399 863L405 864L405 865L418 866L418 865L428 864L428 863L430 863L430 862L432 862C432 862 431 861.5 432 861C433 860.5 436.8 859.7 438 859C439.2 858.3 438.5 857.3 439 857C439.5 856.7 441 857 441 857C441 857 439.8 857.2 441 856C442.2 854.8 446.8 851.3 448 850C449.2 848.7 447.7 848.5 448 848C448.3 847.5 449.7 847.5 450 847C450.3 846.5 450 845 450 845L451 845L451 843L452 843L452 841L453 841L453 839L454 839L455 833L456 833L457 821L456 821L456 814L455 814L455 811L454 811L454 808L453 808L453 805L452 805C452 805 451.5 801.8 451 801C450.5 800.2 449.3 800.5 449 800C448.7 799.5 449 798 449 798L448 798L448 797L447 797L447 796C447 796 447.3 797.3 446 796C444.7 794.7 440.5 789.3 439 788C437.5 786.7 437 788 437 788L437 787C437 787 435.5 787.3 435 787C434.5 786.7 434.7 785.3 434 785C433.3 784.7 431 785 431 785L431 784L429 784L429 783L426 783L426 782L421 782L421 781L409 781Z"/></svg>