<svg xmlns="http://www.w3.org/2000/svg" viewBox="0 0 1400 1120" shape-rendering="geometricPrecision"><path fill="currentColor" stroke="currentColor" d="M1063 715L1062 715L1062 716L1061 716L1061 717L1060 717L1060 718L1059 718L1059 719L1058 719L1058 720L1057 720L1057 721L1056 721L1056 722L1055 722L1055 723C1055 723 1055.3 721.7 1054 723C1052.7 724.3 1048.5 729.7 1047 731C1045.5 732.3 1045.7 730.5 1045 731C1044.3 731.5 1043.7 733.5 1043 734C1042.3 734.5 1041 734 1041 734C1041 734 1041.5 734.7 1041 735C1040.5 735.3 1038.7 735.5 1038 736C1037.3 736.5 1038.2 737.3 1037 738C1035.8 738.7 1032.2 739.3 1031 740C1029.8 740.7 1031 741.5 1030 742C1029 742.5 1025 743 1025 743L1025 744L1023 744L1023 745L1021 745L1021 746L1015 747L1015 748L1013 748L1013 749L1009 749L1009 750L1005 750L1005 751L1000 751L1000 752L994 752L994 753L956 753L956 754L955 754L955 757L954 757L954 760L953 760L953 762L952 762L952 765L951 765L951 767L950 767L950 769C950 769 949.5 768 949 769C948.5 770 947.5 774 947 775C946.5 776 946.3 774.5 946 775C945.7 775.5 945.7 777.2 945 778C944.3 778.8 942.5 779.3 942 780C941.5 780.7 942 782 942 782L941 782L941 783L940 783L940 784L939 784L939 785C939 785 939.3 783.7 938 785C936.7 786.3 932.5 791.7 931 793C929.5 794.3 929.7 792.5 929 793C928.3 793.5 927.7 795.5 927 796C926.3 796.5 925.5 795.7 925 796C924.5 796.3 924.5 797.7 924 798C923.5 798.3 922.5 797.7 922 798C921.5 798.3 921.5 799.7 921 800C920.5 800.3 919 800 919 800L919 801L917 801L917 802L915 802L915 803L912 803L912 804L910 804L910 805L907 805L907 806L904 806L904 807L900 807L900 808L894 808L894 809L876 809L876 808L870 808L870 807L862 806L862 805L859 805L859 804L857 804L857 803L855 803L855 802L853 802C853 802 854 801.5 853 801C852 800.5 848 799.5 847 799C846 798.5 847.5 798.3 847 798C846.5 797.7 844.7 797.5 844 797C843.3 796.5 843.5 795.3 843 795C842.5 794.7 841.8 795.7 841 795C840.2 794.3 838.8 791.7 838 791C837.2 790.3 836 791 836 791C836 791 836.5 790.5 836 790C835.5 789.5 833.5 788.7 833 788C832.5 787.3 834 787.2 833 786C832 784.8 828 782.2 827 781C826 779.8 827 779 827 779L826 779C826 779 826.3 778.3 826 778C825.7 777.7 824.3 777.5 824 777C823.7 776.5 824.3 775.5 824 775C823.7 774.5 822.3 774.5 822 774C821.7 773.5 822 772 822 772L821 772L821 770L820 770L820 768L819 768L819 766L818 766L818 763L817 763L817 761L816 761L816 759L815 759L815 755L814 755L814 751L813 751L813 745L812 745L812 725L813 725L813 720L814 720L814 716L815 716L816 710L817 710L817 708L818 708L818 705L819 705L819 703C819 703 819.5 704 820 703C820.5 702 821.5 698 822 697C822.5 696 822.7 697.5 823 697C823.3 696.5 823.3 694.8 824 694C824.7 693.2 826.5 692.7 827 692C827.5 691.3 826.2 691 827 690C827.8 689 831.2 687 832 686C832.8 685 832 684 832 684C832 684 832.5 684.5 833 684C833.5 683.5 834.3 681.5 835 681C835.7 680.5 836.2 681.7 837 681C837.8 680.3 839.2 677.7 840 677C840.8 676.3 842 677 842 677L842 676C842 676 842.7 676.3 843 676C843.3 675.7 843.5 674.3 844 674C844.5 673.7 845.5 674.3 846 674C846.5 673.7 846.5 672.3 847 672C847.5 671.7 849 672 849 672L849 671L851 671L851 670L853 670L853 669L855 669L855 668L858 668L858 667L860 667L860 666L863 666L863 665L867 665L867 664L871 664L871 663L878 663L878 662L891 662L891 663L898 663L898 664L907 665L907 666L909 666L909 667L912 667L912 668L914 668L914 669L916 669L916 670L918 670C918 670 917 670.5 918 671C919 671.5 923 672.5 924 673C925 673.5 923.5 673.7 924 674C924.5 674.3 926.2 674.3 927 675C927.8 675.7 928.3 677.5 929 678C929.7 678.5 931 678 931 678L931 679L932 679L932 680L933 680L933 681L934 681C934 681 932.7 680.7 934 682C935.3 683.3 940.7 687.5 942 689C943.3 690.5 941.5 690.3 942 691C942.5 691.7 945.5 692.3 945 693C945.5 693.7 944.7 694.5 945 695C945.3 695.5 946.7 695.5 947 696C947.3 696.5 947 698 947 698L948 698L948 700L949 700L949 702L950 702L950 704L951 704L951 706L952 706L952 708L953 708L953 711L954 711L954 714C954 714 954.7 713.5 955 714C955.3 714.5 950.8 716.5 956 717C961.2 717.5 986 717 986 717L986 716L994 716L994 715L998 715L998 714L1005 713L1005 712L1010 711L1010 710C1010 710 1011.5 710.3 1012 710C1012.5 709.7 1012.2 708.5 1013 708C1013.8 707.5 1017 707 1017 707C1017 707 1016.5 706.3 1017 706C1017.5 705.7 1019.3 705.5 1020 705C1020.7 704.5 1020.5 703.3 1021 703C1021.5 702.7 1023 703 1023 703L1023 702L1024 702L1024 701L1025 701L1025 700L1026 700L1026 699L1027 699C1027 699 1025.7 699.3 1027 698C1028.3 696.7 1033.7 692.5 1035 691C1036.3 689.5 1034.5 689.7 1035 689C1035.5 688.3 1037.5 687.7 1038 687C1038.5 686.3 1038 685 1038 685L1039 685C1039 685 1038.7 683.5 1039 683C1039.3 682.5 1040.7 682.5 1041 682C1041.3 681.5 1041 680 1041 680L1042 680L1042 678L1043 678L1043 675L1044 675L1044 673L1045 673L1046 666L1047 666L1047 662L1048 662L1048 655L1049 655L1049 436L1048 436L1047 425L1046 425L1046 422L1045 422L1045 419C1045 419 1044.5 420 1044 419C1043.5 418 1042.7 414.2 1042 413C1043.5 411.8 1040.3 412.5 1040 412C1039.7 411.5 1040.3 410.5 1040 410C1039.7 409.5 1038.3 409.5 1038 409C1037.7 408.5 1038.3 407.5 1038 407C1037.7 406.5 1036.3 406.5 1036 406C1035.7 405.5 1036 404 1036 404C1036 404 1036.3 405.3 1035 404C1033.7 402.7 1029.5 397.3 1028 396C1026.5 394.7 1026.5 396.3 1026 396C1025.5 395.7 1025.5 394.3 1025 394C1024.5 393.7 1023.5 394.3 1023 394C1022.5 393.7 1022.5 392.3 1022 392C1021.5 391.7 1020.5 392.3 1020 392C1019.5 391.7 1019.5 390.3 1019 390C1018.5 389.7 1017 390 1017 390L1017 389L1015 389L1015 388L1013 388L1013 387L1010 387L1010 386L1007 386L1007 385L1002 385L1002 384L738 384L738 383L728 383L728 382L720 381L720 380L717 380L717 379L714 379L714 378L712 378L712 377L709 377L709 376C709 376 705.8 375.5 705 375C704.2 374.5 704.5 373.3 704 373C703.5 372.7 702.5 373.3 702 373C701.5 372.7 701.5 371.3 701 371C700.5 370.7 699.7 371.5 699 371C698.3 370.5 697.7 368.5 697 368C696.3 367.5 695 368 695 368C695 368 695.8 367.8 695 367C694.2 366.2 690.8 364 690 363C689.2 362 690.7 361.8 690 361C689.3 360.2 686.7 358.8 686 358C685.3 357.2 686.3 356.5 686 356C685.7 355.5 684.3 355.5 684 355C683.7 354.5 684.3 353.5 684 353C683.7 352.5 682.3 352.5 682 352C681.7 351.5 682 350 682 350L681 350L681 348L680 348L680 346L679 346L679 344L678 344L678 342L677 342L677 339L676 339L676 336L675 336L675 332L674 332L674 327L673 327L673 296L672 296L672 288L671 288L671 284L670 284L669 278L668 278L668 276L667 276L667 273L666 273C666 273 666.3 271.5 666 271C665.7 270.5 664.5 270.8 664 270C663.5 269.2 663.7 267 663 266C662.3 265 660.5 264.7 660 264C659.5 263.3 660.5 262.7 660 262C659.5 261.3 657.5 260.7 657 260C656.5 259.3 657 258 657 258C657 258 657 259 656 258C655 257 652.2 253 651 252C649.8 251 649.8 252.7 649 252C648.2 251.3 647.2 248.8 646 248C644.8 247.2 642.8 247.5 642 247C641.2 246.5 641.5 245.3 641 245C640.5 244.7 639 245 639 245L639 244L637 244L637 243L635 243L635 242L633 242L633 241L626 240L626 239L622 239L622 238L411 238L411 239L406 239L406 240L402 240L402 241L396 242L396 243L394 243L394 244L392 244C392 244 393 244.5 392 245C391 245.5 387.2 246.3 386 247C384.8 247.7 385.5 248.7 385 249C384.5 249.3 383.5 248.7 383 249C382.5 249.3 382.5 250.7 382 251C381.5 251.3 380.8 250.3 380 251C379.2 251.7 377.8 254.3 377 255C376.2 255.7 375 255 375 255C375 255 376 255 375 256C374 257 370 259.8 369 261C368 262.2 369.7 262.2 369 263C368.3 263.8 365.7 265.2 365 266C364.3 266.8 365 268 365 268C365 268 364.3 267.5 364 268C363.7 268.5 363.5 270.3 363 271C362.5 271.7 361.3 271.5 361 272C360.7 272.5 361 274 361 274L360 274L360 276L359 276L359 278L358 278L358 280L357 280L357 282L356 282L356 285L355 285L354 291L353 291L353 296L352 296L352 303L351 303L351 801L352 801L352 808L353 808L353 813L354 813L356 822L357 822C357 822 357.5 825.2 358 826C358.5 826.8 359.3 825.8 360 827C360.7 828.2 361.2 831.7 362 833C362.8 834.3 364.5 834.3 365 835C365.5 835.7 364.2 836 365 837C365.8 838 369.2 840 370 841C370.8 842 370 843 370 843C370 843 370.3 842.3 371 843C371.7 843.7 373.2 846.3 374 847C374.8 847.7 375.3 846.5 376 847C376.7 847.5 377.3 849.5 378 850C378.7 850.5 379.3 849.5 380 850C380.7 850.5 381 852.3 382 853C383 853.7 385.2 853.5 386 854C386.8 854.5 386.5 855.7 387 856C386.8 854.5 386.5 855.7 387 856C387.5 856.3 389 856 389 856L389 857L391 857L391 858L393 858L393 859L395 859L395 860L404 862L404 863L416 864L416 865L771 865C771 865 770 865.5 771 866C772 866.5 776 867.5 777 868C778 868.5 776.5 868.5 777 869C777.5 869.5 779.5 870.3 780 871C780.5 871.7 779.7 872.5 780 873C780.3 873.5 781.5 873 782 874C782.5 875 783 879 783 879L784 879L784 887L783 887C783 887 783.3 890.2 783 891C782.7 891.8 781.3 891.5 781 892C780.7 892.5 781 894 781 894C781 894 780.7 893.3 780 894C779.3 894.7 777.8 897.3 777 898C776.2 898.7 775.5 897.7 775 898C774.5 898.3 774.7 899.7 774 900C773.3 900.3 771 900 771 900L771 901L407 901L407 900L396 899L396 898L393 898L393 897L389 897L389 896L383 895L383 894L381 894L381 893L379 893L379 892L376 892L376 891C376 891 372.8 890.5 372 890C371.2 889.5 371.8 888.5 371 888C370.2 887.5 367.8 887.5 367 887C366.2 886.5 366.8 885.5 366 885C365.2 884.5 363 884.7 362 884C361 883.3 360.7 881.5 360 881C359.3 880.5 358.5 881.3 358 881C357.5 880.7 357.5 879.3 357 879C356.5 878.7 356.2 880 355 879C353.8 878 351.2 874 350 873C348.8 872 348 873 348 873C348 873 348.8 872.8 348 872C347.2 871.2 343.8 869 343 868C342.2 867 344 867.2 343 866C342 864.8 338 862.2 337 861C336 859.8 337.5 859.7 337 859C336.5 858.3 334.5 857.7 334 857C333.5 856.3 334.5 855.7 334 855C333.5 854.3 331.5 853.7 331 853C330.5 852.3 331 851 331 851L330 851C330 851 330.3 849.5 330 849C329.7 848.5 328.3 848.5 328 848C327.7 847.5 328 846 328 846L327 846L327 844L326 844L326 842L325 842L325 840L324 840L324 838L323 838L323 836L322 836L322 833L321 833L321 831L320 831L320 828L319 828L319 825L318 825L318 821L317 821L317 817L316 817L316 812L315 812L315 804L314 804L314 301L315 301L315 292L316 292L316 287L317 287L318 279L319 279L319 276L320 276L322 267L323 267L323 265L324 265L324 263L325 263L325 261C325 261 325.5 262 326 261C326.5 260 327.3 256.2 328 255C328.7 253.8 329.5 254.8 330 254C330.5 253.2 330.3 251 331 250C331.7 249 333.5 248.7 334 248C334.5 247.3 334 246 334 246C334 246 334.7 246.5 335 246C335.3 245.5 335.2 244 336 243C336.8 242 339.3 240.8 340 240C340.7 239.2 340 238 340 238L341 238L341 237L342 237L342 236L343 236L343 235L344 235L344 234L345 234L345 233C345 233 344.7 234.3 346 233C347.3 231.7 351.5 226.3 353 225C354.5 223.7 354.3 225.5 355 225C355.7 224.5 356.3 222.5 357 222C357.7 221.5 358.3 222.5 359 222C359.7 221.5 360.3 219.5 361 219C361.7 218.5 363 219 363 219C363 219 362.5 218.3 363 218C363.5 217.7 365.3 217.5 366 217C366.7 216.5 366.5 215.3 367 215C367.5 214.7 369 215 369 215L369 214L371 214L371 213L373 213L373 212L375 212L375 211L377 211L377 210L379 210L379 209L382 209L382 208L384 208L384 207L387 207L387 206L390 206L390 205L393 205L393 204L396 204L396 203L400 203L400 202L406 202L406 201L413 201L413 200L620 200L620 201L627 201L627 202L632 202L632 203L636 203L636 204L645 206L645 207L650 208L650 209L652 209C652 209 651 209.5 652 210C653 210.5 656.8 211.3 658 212C659.2 212.7 658.2 213.5 659 214C659.8 214.5 663 215 663 215C663 215 662.5 215.7 663 216C663.5 216.3 665.2 216.3 666 217C666.8 217.7 667.3 219.5 668 220C668.7 220.5 669 219.2 670 220C671 220.8 673 224.2 674 225C675 225.8 676 225 676 225C676 225 675 225 676 226C677 227 681 229.8 682 231C683 232.2 681 231.8 682 233C683 234.2 687 236.8 688 238C689 239.2 687.5 239.3 688 240C688.5 240.7 690.5 241.3 691 242C691.5 242.7 690.7 243.5 691 244C691.3 244.5 692.5 244.2 693 245C693.5 245.8 693.5 248.2 694 249C694.5 249.8 695.7 249.5 696 250C696.3 250.5 696 252 696 252L697 252L697 254L698 254L698 256L699 256L699 258L700 258L700 260L701 260L701 263L702 263L703 268L704 268L704 271L705 271L706 279L707 279L708 295L709 295L709 324L710 324L710 328L711 328C711 328 711.5 331.2 712 332C712.5 332.8 713.7 332.5 714 333C714.3 333.5 714 335 714 335C714 335 713.8 333.8 715 335C716.2 336.2 719.7 340.8 721 342C722.3 343.2 723 342 723 342L723 343L725 343L725 344L727 344L727 345L734 346L734 347L1001 347L1001 348L1008 348L1008 349L1012 349L1012 350L1016 350L1016 351L1023 352L1023 353L1028 354L1028 355L1030 355C1030 355 1029 355.5 1030 356C1031 356.5 1034.8 357.3 1036 358C1037.2 358.7 1036.2 359.5 1037 360C1037.8 360.5 1041 361 1041 361C1041 361 1040.5 361.7 1041 362C1041.5 362.3 1043.2 362.3 1044 363C1044.8 363.7 1045.3 365.5 1046 366C1046.7 366.5 1047.3 365.5 1048 366C1048.7 366.5 1049.3 368.5 1050 369C1050.7 369.5 1052 369 1052 369L1052 370L1053 370L1053 371L1054 371L1054 372L1055 372C1055 372 1053.7 371.7 1055 373C1056.3 374.3 1061.7 378.5 1063 380C1064.3 381.5 1063 382 1063 382L1064 382C1064 382 1063.3 382.3 1064 383C1064.7 383.7 1067.3 385.2 1068 386C1068.7 386.8 1067.7 387.5 1068 388C1068.3 388.5 1069.7 388.5 1070 389C1070.3 389.5 1070 391 1070 391L1071 391C1071 391 1070.7 392.5 1071 393C1071.3 393.5 1072.7 393.5 1073 394C1073.3 394.5 1073 396 1073 396L1074 396L1074 398L1075 398L1075 400L1076 400L1076 402L1077 402L1077 404L1078 404L1078 406L1079 406L1079 409L1080 409L1080 411L1081 411L1081 414L1082 414L1082 417L1083 417L1083 421L1084 421L1084 426L1085 426L1085 432L1086 432L1086 658L1085 658L1084 671L1083 671L1082 679L1081 679L1081 681L1080 681L1078 690L1077 690L1077 692L1076 692L1076 694L1075 694L1075 696C1075 696 1074.5 695 1074 696C1073.5 697 1072.7 700.8 1072 702C1071.3 703.2 1070.3 702.5 1070 703C1069.7 703.5 1070.3 704.5 1070 705C1069.7 705.5 1068.3 705.5 1068 706C1067.7 706.5 1068.3 707.5 1068 708C1067.7 708.5 1066.3 708.5 1066 709C1065.7 709.5 1066.5 710.3 1066 711C1065.5 711.7 1063.5 712.3 1063 713C1062.5 713.7 1063 715 1063 715ZM877 699L877 700L873 700L873 701C873 701 869 701.5 868 702C867 702.5 867.8 703.5 867 704C866.2 704.5 863 705 863 705L863 706L862 706C862 706 863.3 705.7 862 707C860.7 708.3 855.3 712.5 854 714C852.7 715.5 854.3 715.5 854 716C853.7 716.5 852.5 716 852 717C851.5 718 851 722 851 722L850 722L850 724L849 724L849 728L848 728L848 744L849 744L850 750L851 750C851 750 851.5 753.2 852 754C852.5 754.8 853.7 754.5 854 755C854.3 755.5 853.7 756.5 854 757C854.3 757.5 855.7 757.5 856 758C856.3 758.5 856 760 856 760C856 760 856.3 759.3 857 760C857.7 760.7 859.2 763.3 860 764C860.8 764.7 861.3 763.5 862 764C862.7 764.5 863.3 766.5 864 767C864.7 767.5 866 767 866 767L866 768L868 768L868 769L870 769L870 770L876 771L876 772L889 773L889 772L894 772L894 771L897 771L897 770L900 770L900 769C900 769 903.2 768.5 904 768C904.8 767.5 904.5 766.3 905 766C905.5 765.7 907 766 907 766C907 766 905.7 766.3 907 765C908.3 763.7 913.7 759.5 915 758C916.3 756.5 914.7 756.5 915 756C915.3 755.5 916.7 755.5 917 755C917.3 754.5 917 753 917 753L918 753L918 751L919 751L920 745L921 745L922 731L921 731L921 726L920 726L920 723L919 723L919 720L918 720C918 720 917.5 716.8 917 716C916.5 715.2 915.3 715.5 915 715C914.7 714.5 915 713 915 713C915 713 915.2 714.2 914 713C912.8 711.8 909.3 707.2 908 706C906.7 704.8 906.5 706.3 906 706C905.5 705.7 905.5 704.3 905 704C904.5 703.7 903 704 903 704L903 703L901 703L901 702L899 702L899 701L897 701L897 700L893 700L893 699L877 699Z" />
</svg>